<?xml version="1.0" encoding="utf-8" standalone="no"?>
<!DOCTYPE svg PUBLIC "-//W3C//DTD SVG 1.1//EN"
  "http://www.w3.org/Graphics/SVG/1.1/DTD/svg11.dtd">
<svg xmlns:xlink="http://www.w3.org/1999/xlink" width="360pt" height="748.8pt" viewBox="0 0 360 748.8" xmlns="http://www.w3.org/2000/svg" version="1.1">
 <metadata>
  <rdf:RDF xmlns:dc="http://purl.org/dc/elements/1.1/" xmlns:cc="http://creativecommons.org/ns#" xmlns:rdf="http://www.w3.org/1999/02/22-rdf-syntax-ns#">
   <cc:Work>
    <dc:type rdf:resource="http://purl.org/dc/dcmitype/StillImage"/>
    <dc:format>image/svg+xml</dc:format>
    <dc:creator>
     <cc:Agent>
      <dc:title>Matplotlib v3.9.4, https://matplotlib.org/</dc:title>
     </cc:Agent>
    </dc:creator>
   </cc:Work>
  </rdf:RDF>
 </metadata>
 <defs>
  <style type="text/css">*{stroke-linejoin: round; stroke-linecap: butt}</style>
 </defs>
 <g id="figure_1">
  <g id="patch_1">
   <path d="M 0 748.8
L 360 748.8
L 360 0
L 0 0
z
" style="fill: #ffffff"/>
  </g>
  <g id="axes_1">
   <g id="patch_2">
    <path d="M 68.4 288.426667
L 342 288.426667
L 342 74.88
L 68.4 74.88
z
" style="fill: #ffffff"/>
   </g>
   <g id="line2d_1">
    <path d="M 68.4 117.589333
L 342 117.589333
" clip-path="url(#p87f5db2382)" style="fill: none; stroke-dasharray: 3.6,3.6; stroke-dashoffset: 0; stroke: #9aa8ae; stroke-width: 1.2"/>
   </g>
   <g id="matplotlib.axis_1">
    <g id="xtick_1">
     <g id="line2d_2"/>
     <g id="text_1">
      <!-- 0 -->
      <g style="fill: #52636c" transform="translate(66.639643 305.544792) scale(0.12 -0.12)">
       <defs>
        <path id="DejaVuSans-30" d="M 2034 4250
Q 1547 4250 1301 3770
Q 1056 3291 1056 2328
Q 1056 1369 1301 889
Q 1547 409 2034 409
Q 2525 409 2770 889
Q 3016 1369 3016 2328
Q 3016 3291 2770 3770
Q 2525 4250 2034 4250
z
M 2034 4750
Q 2819 4750 3233 4129
Q 3647 3509 3647 2328
Q 3647 1150 3233 529
Q 2819 -91 2034 -91
Q 1250 -91 836 529
Q 422 1150 422 2328
Q 422 3509 836 4129
Q 1250 4750 2034 4750
z
" transform="scale(0.015625)"/>
       </defs>
       <use xlink:href="#DejaVuSans-30"/>
      </g>
     </g>
    </g>
    <g id="xtick_2">
     <g id="line2d_3"/>
     <g id="text_2">
      <!-- 2 -->
      <g style="fill: #52636c" transform="translate(148.925357 305.544792) scale(0.12 -0.12)">
       <defs>
        <path id="DejaVuSans-32" d="M 1228 531
L 3431 531
L 3431 0
L 469 0
L 469 531
Q 828 903 1448 1529
Q 2069 2156 2228 2338
Q 2531 2678 2651 2914
Q 2772 3150 2772 3378
Q 2772 3750 2511 3984
Q 2250 4219 1831 4219
Q 1534 4219 1204 4116
Q 875 4013 500 3803
L 500 4441
Q 881 4594 1212 4672
Q 1544 4750 1819 4750
Q 2544 4750 2975 4387
Q 3406 4025 3406 3419
Q 3406 3131 3298 2873
Q 3191 2616 2906 2266
Q 2828 2175 2409 1742
Q 1991 1309 1228 531
z
" transform="scale(0.015625)"/>
       </defs>
       <use xlink:href="#DejaVuSans-32"/>
      </g>
     </g>
    </g>
    <g id="xtick_3">
     <g id="line2d_4"/>
     <g id="text_3">
      <!-- 4 -->
      <g style="fill: #52636c" transform="translate(231.211071 305.544792) scale(0.12 -0.12)">
       <defs>
        <path id="DejaVuSans-34" d="M 2419 4116
L 825 1625
L 2419 1625
L 2419 4116
z
M 2253 4666
L 3047 4666
L 3047 1625
L 3713 1625
L 3713 1100
L 3047 1100
L 3047 0
L 2419 0
L 2419 1100
L 313 1100
L 313 1709
L 2253 4666
z
" transform="scale(0.015625)"/>
       </defs>
       <use xlink:href="#DejaVuSans-34"/>
      </g>
     </g>
    </g>
    <g id="xtick_4">
     <g id="line2d_5"/>
     <g id="text_4">
      <!-- 6 -->
      <g style="fill: #52636c" transform="translate(313.496786 305.544792) scale(0.12 -0.12)">
       <defs>
        <path id="DejaVuSans-36" d="M 2113 2584
Q 1688 2584 1439 2293
Q 1191 2003 1191 1497
Q 1191 994 1439 701
Q 1688 409 2113 409
Q 2538 409 2786 701
Q 3034 994 3034 1497
Q 3034 2003 2786 2293
Q 2538 2584 2113 2584
z
M 3366 4563
L 3366 3988
Q 3128 4100 2886 4159
Q 2644 4219 2406 4219
Q 1781 4219 1451 3797
Q 1122 3375 1075 2522
Q 1259 2794 1537 2939
Q 1816 3084 2150 3084
Q 2853 3084 3261 2657
Q 3669 2231 3669 1497
Q 3669 778 3244 343
Q 2819 -91 2113 -91
Q 1303 -91 875 529
Q 447 1150 447 2328
Q 447 3434 972 4092
Q 1497 4750 2381 4750
Q 2619 4750 2861 4703
Q 3103 4656 3366 4563
z
" transform="scale(0.015625)"/>
       </defs>
       <use xlink:href="#DejaVuSans-36"/>
      </g>
     </g>
    </g>
    <g id="text_5">
     <!-- Full-pack PPO steps (millions) -->
     <g style="fill: #263c46" transform="translate(109.587031 321.918385) scale(0.13 -0.13)">
      <defs>
       <path id="DejaVuSans-46" d="M 628 4666
L 3309 4666
L 3309 4134
L 1259 4134
L 1259 2759
L 3109 2759
L 3109 2228
L 1259 2228
L 1259 0
L 628 0
L 628 4666
z
" transform="scale(0.015625)"/>
       <path id="DejaVuSans-75" d="M 544 1381
L 544 3500
L 1119 3500
L 1119 1403
Q 1119 906 1312 657
Q 1506 409 1894 409
Q 2359 409 2629 706
Q 2900 1003 2900 1516
L 2900 3500
L 3475 3500
L 3475 0
L 2900 0
L 2900 538
Q 2691 219 2414 64
Q 2138 -91 1772 -91
Q 1169 -91 856 284
Q 544 659 544 1381
z
M 1991 3584
L 1991 3584
z
" transform="scale(0.015625)"/>
       <path id="DejaVuSans-6c" d="M 603 4863
L 1178 4863
L 1178 0
L 603 0
L 603 4863
z
" transform="scale(0.015625)"/>
       <path id="DejaVuSans-2d" d="M 313 2009
L 1997 2009
L 1997 1497
L 313 1497
L 313 2009
z
" transform="scale(0.015625)"/>
       <path id="DejaVuSans-70" d="M 1159 525
L 1159 -1331
L 581 -1331
L 581 3500
L 1159 3500
L 1159 2969
Q 1341 3281 1617 3432
Q 1894 3584 2278 3584
Q 2916 3584 3314 3078
Q 3713 2572 3713 1747
Q 3713 922 3314 415
Q 2916 -91 2278 -91
Q 1894 -91 1617 61
Q 1341 213 1159 525
z
M 3116 1747
Q 3116 2381 2855 2742
Q 2594 3103 2138 3103
Q 1681 3103 1420 2742
Q 1159 2381 1159 1747
Q 1159 1113 1420 752
Q 1681 391 2138 391
Q 2594 391 2855 752
Q 3116 1113 3116 1747
z
" transform="scale(0.015625)"/>
       <path id="DejaVuSans-61" d="M 2194 1759
Q 1497 1759 1228 1600
Q 959 1441 959 1056
Q 959 750 1161 570
Q 1363 391 1709 391
Q 2188 391 2477 730
Q 2766 1069 2766 1631
L 2766 1759
L 2194 1759
z
M 3341 1997
L 3341 0
L 2766 0
L 2766 531
Q 2569 213 2275 61
Q 1981 -91 1556 -91
Q 1019 -91 701 211
Q 384 513 384 1019
Q 384 1609 779 1909
Q 1175 2209 1959 2209
L 2766 2209
L 2766 2266
Q 2766 2663 2505 2880
Q 2244 3097 1772 3097
Q 1472 3097 1187 3025
Q 903 2953 641 2809
L 641 3341
Q 956 3463 1253 3523
Q 1550 3584 1831 3584
Q 2591 3584 2966 3190
Q 3341 2797 3341 1997
z
" transform="scale(0.015625)"/>
       <path id="DejaVuSans-63" d="M 3122 3366
L 3122 2828
Q 2878 2963 2633 3030
Q 2388 3097 2138 3097
Q 1578 3097 1268 2742
Q 959 2388 959 1747
Q 959 1106 1268 751
Q 1578 397 2138 397
Q 2388 397 2633 464
Q 2878 531 3122 666
L 3122 134
Q 2881 22 2623 -34
Q 2366 -91 2075 -91
Q 1284 -91 818 406
Q 353 903 353 1747
Q 353 2603 823 3093
Q 1294 3584 2113 3584
Q 2378 3584 2631 3529
Q 2884 3475 3122 3366
z
" transform="scale(0.015625)"/>
       <path id="DejaVuSans-6b" d="M 581 4863
L 1159 4863
L 1159 1991
L 2875 3500
L 3609 3500
L 1753 1863
L 3688 0
L 2938 0
L 1159 1709
L 1159 0
L 581 0
L 581 4863
z
" transform="scale(0.015625)"/>
       <path id="DejaVuSans-20" transform="scale(0.015625)"/>
       <path id="DejaVuSans-50" d="M 1259 4147
L 1259 2394
L 2053 2394
Q 2494 2394 2734 2622
Q 2975 2850 2975 3272
Q 2975 3691 2734 3919
Q 2494 4147 2053 4147
L 1259 4147
z
M 628 4666
L 2053 4666
Q 2838 4666 3239 4311
Q 3641 3956 3641 3272
Q 3641 2581 3239 2228
Q 2838 1875 2053 1875
L 1259 1875
L 1259 0
L 628 0
L 628 4666
z
" transform="scale(0.015625)"/>
       <path id="DejaVuSans-4f" d="M 2522 4238
Q 1834 4238 1429 3725
Q 1025 3213 1025 2328
Q 1025 1447 1429 934
Q 1834 422 2522 422
Q 3209 422 3611 934
Q 4013 1447 4013 2328
Q 4013 3213 3611 3725
Q 3209 4238 2522 4238
z
M 2522 4750
Q 3503 4750 4090 4092
Q 4678 3434 4678 2328
Q 4678 1225 4090 567
Q 3503 -91 2522 -91
Q 1538 -91 948 565
Q 359 1222 359 2328
Q 359 3434 948 4092
Q 1538 4750 2522 4750
z
" transform="scale(0.015625)"/>
       <path id="DejaVuSans-73" d="M 2834 3397
L 2834 2853
Q 2591 2978 2328 3040
Q 2066 3103 1784 3103
Q 1356 3103 1142 2972
Q 928 2841 928 2578
Q 928 2378 1081 2264
Q 1234 2150 1697 2047
L 1894 2003
Q 2506 1872 2764 1633
Q 3022 1394 3022 966
Q 3022 478 2636 193
Q 2250 -91 1575 -91
Q 1294 -91 989 -36
Q 684 19 347 128
L 347 722
Q 666 556 975 473
Q 1284 391 1588 391
Q 1994 391 2212 530
Q 2431 669 2431 922
Q 2431 1156 2273 1281
Q 2116 1406 1581 1522
L 1381 1569
Q 847 1681 609 1914
Q 372 2147 372 2553
Q 372 3047 722 3315
Q 1072 3584 1716 3584
Q 2034 3584 2315 3537
Q 2597 3491 2834 3397
z
" transform="scale(0.015625)"/>
       <path id="DejaVuSans-74" d="M 1172 4494
L 1172 3500
L 2356 3500
L 2356 3053
L 1172 3053
L 1172 1153
Q 1172 725 1289 603
Q 1406 481 1766 481
L 2356 481
L 2356 0
L 1766 0
Q 1100 0 847 248
Q 594 497 594 1153
L 594 3053
L 172 3053
L 172 3500
L 594 3500
L 594 4494
L 1172 4494
z
" transform="scale(0.015625)"/>
       <path id="DejaVuSans-65" d="M 3597 1894
L 3597 1613
L 953 1613
Q 991 1019 1311 708
Q 1631 397 2203 397
Q 2534 397 2845 478
Q 3156 559 3463 722
L 3463 178
Q 3153 47 2828 -22
Q 2503 -91 2169 -91
Q 1331 -91 842 396
Q 353 884 353 1716
Q 353 2575 817 3079
Q 1281 3584 2069 3584
Q 2775 3584 3186 3129
Q 3597 2675 3597 1894
z
M 3022 2063
Q 3016 2534 2758 2815
Q 2500 3097 2075 3097
Q 1594 3097 1305 2825
Q 1016 2553 972 2059
L 3022 2063
z
" transform="scale(0.015625)"/>
       <path id="DejaVuSans-28" d="M 1984 4856
Q 1566 4138 1362 3434
Q 1159 2731 1159 2009
Q 1159 1288 1364 580
Q 1569 -128 1984 -844
L 1484 -844
Q 1016 -109 783 600
Q 550 1309 550 2009
Q 550 2706 781 3412
Q 1013 4119 1484 4856
L 1984 4856
z
" transform="scale(0.015625)"/>
       <path id="DejaVuSans-6d" d="M 3328 2828
Q 3544 3216 3844 3400
Q 4144 3584 4550 3584
Q 5097 3584 5394 3201
Q 5691 2819 5691 2113
L 5691 0
L 5113 0
L 5113 2094
Q 5113 2597 4934 2840
Q 4756 3084 4391 3084
Q 3944 3084 3684 2787
Q 3425 2491 3425 1978
L 3425 0
L 2847 0
L 2847 2094
Q 2847 2600 2669 2842
Q 2491 3084 2119 3084
Q 1678 3084 1418 2786
Q 1159 2488 1159 1978
L 1159 0
L 581 0
L 581 3500
L 1159 3500
L 1159 2956
Q 1356 3278 1631 3431
Q 1906 3584 2284 3584
Q 2666 3584 2933 3390
Q 3200 3197 3328 2828
z
" transform="scale(0.015625)"/>
       <path id="DejaVuSans-69" d="M 603 3500
L 1178 3500
L 1178 0
L 603 0
L 603 3500
z
M 603 4863
L 1178 4863
L 1178 4134
L 603 4134
L 603 4863
z
" transform="scale(0.015625)"/>
       <path id="DejaVuSans-6f" d="M 1959 3097
Q 1497 3097 1228 2736
Q 959 2375 959 1747
Q 959 1119 1226 758
Q 1494 397 1959 397
Q 2419 397 2687 759
Q 2956 1122 2956 1747
Q 2956 2369 2687 2733
Q 2419 3097 1959 3097
z
M 1959 3584
Q 2709 3584 3137 3096
Q 3566 2609 3566 1747
Q 3566 888 3137 398
Q 2709 -91 1959 -91
Q 1206 -91 779 398
Q 353 888 353 1747
Q 353 2609 779 3096
Q 1206 3584 1959 3584
z
" transform="scale(0.015625)"/>
       <path id="DejaVuSans-6e" d="M 3513 2113
L 3513 0
L 2938 0
L 2938 2094
Q 2938 2591 2744 2837
Q 2550 3084 2163 3084
Q 1697 3084 1428 2787
Q 1159 2491 1159 1978
L 1159 0
L 581 0
L 581 3500
L 1159 3500
L 1159 2956
Q 1366 3272 1645 3428
Q 1925 3584 2291 3584
Q 2894 3584 3203 3211
Q 3513 2838 3513 2113
z
" transform="scale(0.015625)"/>
       <path id="DejaVuSans-29" d="M 513 4856
L 1013 4856
Q 1481 4119 1714 3412
Q 1947 2706 1947 2009
Q 1947 1309 1714 600
Q 1481 -109 1013 -844
L 513 -844
Q 928 -128 1133 580
Q 1338 1288 1338 2009
Q 1338 2731 1133 3434
Q 928 4138 513 4856
z
" transform="scale(0.015625)"/>
      </defs>
      <use xlink:href="#DejaVuSans-46"/>
      <use xlink:href="#DejaVuSans-75" x="52.019531"/>
      <use xlink:href="#DejaVuSans-6c" x="115.398438"/>
      <use xlink:href="#DejaVuSans-6c" x="143.181641"/>
      <use xlink:href="#DejaVuSans-2d" x="170.964844"/>
      <use xlink:href="#DejaVuSans-70" x="207.048828"/>
      <use xlink:href="#DejaVuSans-61" x="270.525391"/>
      <use xlink:href="#DejaVuSans-63" x="331.804688"/>
      <use xlink:href="#DejaVuSans-6b" x="386.785156"/>
      <use xlink:href="#DejaVuSans-20" x="444.695312"/>
      <use xlink:href="#DejaVuSans-50" x="476.482422"/>
      <use xlink:href="#DejaVuSans-50" x="536.785156"/>
      <use xlink:href="#DejaVuSans-4f" x="597.087891"/>
      <use xlink:href="#DejaVuSans-20" x="675.798828"/>
      <use xlink:href="#DejaVuSans-73" x="707.585938"/>
      <use xlink:href="#DejaVuSans-74" x="759.685547"/>
      <use xlink:href="#DejaVuSans-65" x="798.894531"/>
      <use xlink:href="#DejaVuSans-70" x="860.417969"/>
      <use xlink:href="#DejaVuSans-73" x="923.894531"/>
      <use xlink:href="#DejaVuSans-20" x="975.994141"/>
      <use xlink:href="#DejaVuSans-28" x="1007.78125"/>
      <use xlink:href="#DejaVuSans-6d" x="1046.794922"/>
      <use xlink:href="#DejaVuSans-69" x="1144.207031"/>
      <use xlink:href="#DejaVuSans-6c" x="1171.990234"/>
      <use xlink:href="#DejaVuSans-6c" x="1199.773438"/>
      <use xlink:href="#DejaVuSans-69" x="1227.556641"/>
      <use xlink:href="#DejaVuSans-6f" x="1255.339844"/>
      <use xlink:href="#DejaVuSans-6e" x="1316.521484"/>
      <use xlink:href="#DejaVuSans-73" x="1379.900391"/>
      <use xlink:href="#DejaVuSans-29" x="1432"/>
     </g>
    </g>
   </g>
   <g id="matplotlib.axis_2">
    <g id="ytick_1">
     <g id="line2d_6">
      <path d="M 68.4 288.426667
L 342 288.426667
" clip-path="url(#p87f5db2382)" style="fill: none; stroke: #b0b0b0; stroke-opacity: 0.25; stroke-width: 0.8; stroke-linecap: square"/>
     </g>
     <g id="line2d_7"/>
     <g id="text_6">
      <!-- 0% -->
      <g style="fill: #52636c" transform="translate(41.363125 292.985729) scale(0.12 -0.12)">
       <defs>
        <path id="DejaVuSans-25" d="M 4653 2053
Q 4381 2053 4226 1822
Q 4072 1591 4072 1178
Q 4072 772 4226 539
Q 4381 306 4653 306
Q 4919 306 5073 539
Q 5228 772 5228 1178
Q 5228 1588 5073 1820
Q 4919 2053 4653 2053
z
M 4653 2450
Q 5147 2450 5437 2106
Q 5728 1763 5728 1178
Q 5728 594 5436 251
Q 5144 -91 4653 -91
Q 4153 -91 3862 251
Q 3572 594 3572 1178
Q 3572 1766 3864 2108
Q 4156 2450 4653 2450
z
M 1428 4353
Q 1159 4353 1004 4120
Q 850 3888 850 3481
Q 850 3069 1003 2837
Q 1156 2606 1428 2606
Q 1700 2606 1854 2837
Q 2009 3069 2009 3481
Q 2009 3884 1853 4118
Q 1697 4353 1428 4353
z
M 4250 4750
L 4750 4750
L 1831 -91
L 1331 -91
L 4250 4750
z
M 1428 4750
Q 1922 4750 2215 4408
Q 2509 4066 2509 3481
Q 2509 2891 2217 2550
Q 1925 2209 1428 2209
Q 931 2209 642 2551
Q 353 2894 353 3481
Q 353 4063 643 4406
Q 934 4750 1428 4750
z
" transform="scale(0.015625)"/>
       </defs>
       <use xlink:href="#DejaVuSans-30"/>
       <use xlink:href="#DejaVuSans-25" x="63.623047"/>
      </g>
     </g>
    </g>
    <g id="ytick_2">
     <g id="line2d_8">
      <path d="M 68.4 245.717333
L 342 245.717333
" clip-path="url(#p87f5db2382)" style="fill: none; stroke: #b0b0b0; stroke-opacity: 0.25; stroke-width: 0.8; stroke-linecap: square"/>
     </g>
     <g id="line2d_9"/>
     <g id="text_7">
      <!-- 20% -->
      <g style="fill: #52636c" transform="translate(33.728125 250.276396) scale(0.12 -0.12)">
       <use xlink:href="#DejaVuSans-32"/>
       <use xlink:href="#DejaVuSans-30" x="63.623047"/>
       <use xlink:href="#DejaVuSans-25" x="127.246094"/>
      </g>
     </g>
    </g>
    <g id="ytick_3">
     <g id="line2d_10">
      <path d="M 68.4 203.008
L 342 203.008
" clip-path="url(#p87f5db2382)" style="fill: none; stroke: #b0b0b0; stroke-opacity: 0.25; stroke-width: 0.8; stroke-linecap: square"/>
     </g>
     <g id="line2d_11"/>
     <g id="text_8">
      <!-- 40% -->
      <g style="fill: #52636c" transform="translate(33.728125 207.567062) scale(0.12 -0.12)">
       <use xlink:href="#DejaVuSans-34"/>
       <use xlink:href="#DejaVuSans-30" x="63.623047"/>
       <use xlink:href="#DejaVuSans-25" x="127.246094"/>
      </g>
     </g>
    </g>
    <g id="ytick_4">
     <g id="line2d_12">
      <path d="M 68.4 160.298667
L 342 160.298667
" clip-path="url(#p87f5db2382)" style="fill: none; stroke: #b0b0b0; stroke-opacity: 0.25; stroke-width: 0.8; stroke-linecap: square"/>
     </g>
     <g id="line2d_13"/>
     <g id="text_9">
      <!-- 60% -->
      <g style="fill: #52636c" transform="translate(33.728125 164.857729) scale(0.12 -0.12)">
       <use xlink:href="#DejaVuSans-36"/>
       <use xlink:href="#DejaVuSans-30" x="63.623047"/>
       <use xlink:href="#DejaVuSans-25" x="127.246094"/>
      </g>
     </g>
    </g>
    <g id="ytick_5">
     <g id="line2d_14">
      <path d="M 68.4 117.589333
L 342 117.589333
" clip-path="url(#p87f5db2382)" style="fill: none; stroke: #b0b0b0; stroke-opacity: 0.25; stroke-width: 0.8; stroke-linecap: square"/>
     </g>
     <g id="line2d_15"/>
     <g id="text_10">
      <!-- 80% -->
      <g style="fill: #52636c" transform="translate(33.728125 122.148396) scale(0.12 -0.12)">
       <defs>
        <path id="DejaVuSans-38" d="M 2034 2216
Q 1584 2216 1326 1975
Q 1069 1734 1069 1313
Q 1069 891 1326 650
Q 1584 409 2034 409
Q 2484 409 2743 651
Q 3003 894 3003 1313
Q 3003 1734 2745 1975
Q 2488 2216 2034 2216
z
M 1403 2484
Q 997 2584 770 2862
Q 544 3141 544 3541
Q 544 4100 942 4425
Q 1341 4750 2034 4750
Q 2731 4750 3128 4425
Q 3525 4100 3525 3541
Q 3525 3141 3298 2862
Q 3072 2584 2669 2484
Q 3125 2378 3379 2068
Q 3634 1759 3634 1313
Q 3634 634 3220 271
Q 2806 -91 2034 -91
Q 1263 -91 848 271
Q 434 634 434 1313
Q 434 1759 690 2068
Q 947 2378 1403 2484
z
M 1172 3481
Q 1172 3119 1398 2916
Q 1625 2713 2034 2713
Q 2441 2713 2670 2916
Q 2900 3119 2900 3481
Q 2900 3844 2670 4047
Q 2441 4250 2034 4250
Q 1625 4250 1398 4047
Q 1172 3844 1172 3481
z
" transform="scale(0.015625)"/>
       </defs>
       <use xlink:href="#DejaVuSans-38"/>
       <use xlink:href="#DejaVuSans-30" x="63.623047"/>
       <use xlink:href="#DejaVuSans-25" x="127.246094"/>
      </g>
     </g>
    </g>
    <g id="ytick_6">
     <g id="line2d_16">
      <path d="M 68.4 74.88
L 342 74.88
" clip-path="url(#p87f5db2382)" style="fill: none; stroke: #b0b0b0; stroke-opacity: 0.25; stroke-width: 0.8; stroke-linecap: square"/>
     </g>
     <g id="line2d_17"/>
     <g id="text_11">
      <!-- 100% -->
      <g style="fill: #52636c" transform="translate(26.093125 79.439062) scale(0.12 -0.12)">
       <defs>
        <path id="DejaVuSans-31" d="M 794 531
L 1825 531
L 1825 4091
L 703 3866
L 703 4441
L 1819 4666
L 2450 4666
L 2450 531
L 3481 531
L 3481 0
L 794 0
L 794 531
z
" transform="scale(0.015625)"/>
       </defs>
       <use xlink:href="#DejaVuSans-31"/>
       <use xlink:href="#DejaVuSans-30" x="63.623047"/>
       <use xlink:href="#DejaVuSans-30" x="127.246094"/>
       <use xlink:href="#DejaVuSans-25" x="190.869141"/>
      </g>
     </g>
    </g>
    <g id="text_12">
     <!-- Validation ten-win success -->
     <g style="fill: #263c46" transform="translate(19.389531 267.56099) rotate(-90) scale(0.13 -0.13)">
      <defs>
       <path id="DejaVuSans-56" d="M 1831 0
L 50 4666
L 709 4666
L 2188 738
L 3669 4666
L 4325 4666
L 2547 0
L 1831 0
z
" transform="scale(0.015625)"/>
       <path id="DejaVuSans-64" d="M 2906 2969
L 2906 4863
L 3481 4863
L 3481 0
L 2906 0
L 2906 525
Q 2725 213 2448 61
Q 2172 -91 1784 -91
Q 1150 -91 751 415
Q 353 922 353 1747
Q 353 2572 751 3078
Q 1150 3584 1784 3584
Q 2172 3584 2448 3432
Q 2725 3281 2906 2969
z
M 947 1747
Q 947 1113 1208 752
Q 1469 391 1925 391
Q 2381 391 2643 752
Q 2906 1113 2906 1747
Q 2906 2381 2643 2742
Q 2381 3103 1925 3103
Q 1469 3103 1208 2742
Q 947 2381 947 1747
z
" transform="scale(0.015625)"/>
       <path id="DejaVuSans-77" d="M 269 3500
L 844 3500
L 1563 769
L 2278 3500
L 2956 3500
L 3675 769
L 4391 3500
L 4966 3500
L 4050 0
L 3372 0
L 2619 2869
L 1863 0
L 1184 0
L 269 3500
z
" transform="scale(0.015625)"/>
      </defs>
      <use xlink:href="#DejaVuSans-56"/>
      <use xlink:href="#DejaVuSans-61" x="60.658203"/>
      <use xlink:href="#DejaVuSans-6c" x="121.9375"/>
      <use xlink:href="#DejaVuSans-69" x="149.720703"/>
      <use xlink:href="#DejaVuSans-64" x="177.503906"/>
      <use xlink:href="#DejaVuSans-61" x="240.980469"/>
      <use xlink:href="#DejaVuSans-74" x="302.259766"/>
      <use xlink:href="#DejaVuSans-69" x="341.46875"/>
      <use xlink:href="#DejaVuSans-6f" x="369.251953"/>
      <use xlink:href="#DejaVuSans-6e" x="430.433594"/>
      <use xlink:href="#DejaVuSans-20" x="493.8125"/>
      <use xlink:href="#DejaVuSans-74" x="525.599609"/>
      <use xlink:href="#DejaVuSans-65" x="564.808594"/>
      <use xlink:href="#DejaVuSans-6e" x="626.332031"/>
      <use xlink:href="#DejaVuSans-2d" x="689.710938"/>
      <use xlink:href="#DejaVuSans-77" x="725.794922"/>
      <use xlink:href="#DejaVuSans-69" x="807.582031"/>
      <use xlink:href="#DejaVuSans-6e" x="835.365234"/>
      <use xlink:href="#DejaVuSans-20" x="898.744141"/>
      <use xlink:href="#DejaVuSans-73" x="930.53125"/>
      <use xlink:href="#DejaVuSans-75" x="982.630859"/>
      <use xlink:href="#DejaVuSans-63" x="1046.009766"/>
      <use xlink:href="#DejaVuSans-63" x="1100.990234"/>
      <use xlink:href="#DejaVuSans-65" x="1155.970703"/>
      <use xlink:href="#DejaVuSans-73" x="1217.494141"/>
      <use xlink:href="#DejaVuSans-73" x="1269.59375"/>
     </g>
    </g>
   </g>
   <g id="line2d_18">
    <path d="M 70.457143 205.677333
L 81.242496 191.7968
L 92.027849 202.474133
L 102.813202 174.713067
L 113.598555 179.517867
L 124.383909 157.629333
L 135.169262 167.7728
L 145.954615 146.418133
L 156.739968 139.477867
L 167.525321 141.613333
L 178.310674 125.063467
L 189.096027 139.477867
L 199.881381 124.5296
L 210.666734 134.673067
L 221.452087 132.003733
L 232.23744 128.266667
L 243.022793 131.469867
L 253.808146 127.7328
L 264.593499 128.800533
L 275.378853 113.852267
L 286.164206 109.581333
L 296.949559 127.7328
L 307.734912 126.1312
L 318.520265 114.386133
L 329.305618 126.1312
" clip-path="url(#p87f5db2382)" style="fill: none; stroke: #347c8d; stroke-width: 1.8; stroke-linecap: square"/>
    <defs>
     <path id="m0e6433318f" d="M 0 1.6
C 0.424325 1.6 0.831328 1.431414 1.131371 1.131371
C 1.431414 0.831328 1.6 0.424325 1.6 0
C 1.6 -0.424325 1.431414 -0.831328 1.131371 -1.131371
C 0.831328 -1.431414 0.424325 -1.6 0 -1.6
C -0.424325 -1.6 -0.831328 -1.431414 -1.131371 -1.131371
C -1.431414 -0.831328 -1.6 -0.424325 -1.6 0
C -1.6 0.424325 -1.431414 0.831328 -1.131371 1.131371
C -0.831328 1.431414 -0.424325 1.6 0 1.6
z
" style="stroke: #347c8d"/>
    </defs>
    <g clip-path="url(#p87f5db2382)">
     <use xlink:href="#m0e6433318f" x="70.457143" y="205.677333" style="fill: #347c8d; stroke: #347c8d"/>
     <use xlink:href="#m0e6433318f" x="81.242496" y="191.7968" style="fill: #347c8d; stroke: #347c8d"/>
     <use xlink:href="#m0e6433318f" x="92.027849" y="202.474133" style="fill: #347c8d; stroke: #347c8d"/>
     <use xlink:href="#m0e6433318f" x="102.813202" y="174.713067" style="fill: #347c8d; stroke: #347c8d"/>
     <use xlink:href="#m0e6433318f" x="113.598555" y="179.517867" style="fill: #347c8d; stroke: #347c8d"/>
     <use xlink:href="#m0e6433318f" x="124.383909" y="157.629333" style="fill: #347c8d; stroke: #347c8d"/>
     <use xlink:href="#m0e6433318f" x="135.169262" y="167.7728" style="fill: #347c8d; stroke: #347c8d"/>
     <use xlink:href="#m0e6433318f" x="145.954615" y="146.418133" style="fill: #347c8d; stroke: #347c8d"/>
     <use xlink:href="#m0e6433318f" x="156.739968" y="139.477867" style="fill: #347c8d; stroke: #347c8d"/>
     <use xlink:href="#m0e6433318f" x="167.525321" y="141.613333" style="fill: #347c8d; stroke: #347c8d"/>
     <use xlink:href="#m0e6433318f" x="178.310674" y="125.063467" style="fill: #347c8d; stroke: #347c8d"/>
     <use xlink:href="#m0e6433318f" x="189.096027" y="139.477867" style="fill: #347c8d; stroke: #347c8d"/>
     <use xlink:href="#m0e6433318f" x="199.881381" y="124.5296" style="fill: #347c8d; stroke: #347c8d"/>
     <use xlink:href="#m0e6433318f" x="210.666734" y="134.673067" style="fill: #347c8d; stroke: #347c8d"/>
     <use xlink:href="#m0e6433318f" x="221.452087" y="132.003733" style="fill: #347c8d; stroke: #347c8d"/>
     <use xlink:href="#m0e6433318f" x="232.23744" y="128.266667" style="fill: #347c8d; stroke: #347c8d"/>
     <use xlink:href="#m0e6433318f" x="243.022793" y="131.469867" style="fill: #347c8d; stroke: #347c8d"/>
     <use xlink:href="#m0e6433318f" x="253.808146" y="127.7328" style="fill: #347c8d; stroke: #347c8d"/>
     <use xlink:href="#m0e6433318f" x="264.593499" y="128.800533" style="fill: #347c8d; stroke: #347c8d"/>
     <use xlink:href="#m0e6433318f" x="275.378853" y="113.852267" style="fill: #347c8d; stroke: #347c8d"/>
     <use xlink:href="#m0e6433318f" x="286.164206" y="109.581333" style="fill: #347c8d; stroke: #347c8d"/>
     <use xlink:href="#m0e6433318f" x="296.949559" y="127.7328" style="fill: #347c8d; stroke: #347c8d"/>
     <use xlink:href="#m0e6433318f" x="307.734912" y="126.1312" style="fill: #347c8d; stroke: #347c8d"/>
     <use xlink:href="#m0e6433318f" x="318.520265" y="114.386133" style="fill: #347c8d; stroke: #347c8d"/>
     <use xlink:href="#m0e6433318f" x="329.305618" y="126.1312" style="fill: #347c8d; stroke: #347c8d"/>
    </g>
   </g>
   <g id="line2d_19">
    <path d="M 70.457143 193.932267
L 81.242496 199.270933
L 92.027849 183.7888
L 102.813202 173.645333
L 113.598555 163.501867
L 124.383909 162.434133
L 135.169262 153.892267
L 145.954615 152.824533
L 156.739968 134.673067
L 167.525321 133.605333
L 178.310674 144.816533
L 189.096027 157.095467
L 199.881381 138.410133
L 210.666734 127.198933
L 221.452087 137.876267
L 232.23744 127.7328
L 243.022793 132.5376
L 253.808146 128.266667
L 264.593499 118.657067
L 275.378853 123.995733
L 286.164206 123.461867
L 296.949559 120.258667
L 307.734912 113.852267
L 318.520265 117.589333
L 329.305618 121.3264
" clip-path="url(#p87f5db2382)" style="fill: none; stroke: #b57b2a; stroke-width: 1.8; stroke-linecap: square"/>
    <defs>
     <path id="mf0fe432da7" d="M 0 1.6
C 0.424325 1.6 0.831328 1.431414 1.131371 1.131371
C 1.431414 0.831328 1.6 0.424325 1.6 0
C 1.6 -0.424325 1.431414 -0.831328 1.131371 -1.131371
C 0.831328 -1.431414 0.424325 -1.6 0 -1.6
C -0.424325 -1.6 -0.831328 -1.431414 -1.131371 -1.131371
C -1.431414 -0.831328 -1.6 -0.424325 -1.6 0
C -1.6 0.424325 -1.431414 0.831328 -1.131371 1.131371
C -0.831328 1.431414 -0.424325 1.6 0 1.6
z
" style="stroke: #b57b2a"/>
    </defs>
    <g clip-path="url(#p87f5db2382)">
     <use xlink:href="#mf0fe432da7" x="70.457143" y="193.932267" style="fill: #b57b2a; stroke: #b57b2a"/>
     <use xlink:href="#mf0fe432da7" x="81.242496" y="199.270933" style="fill: #b57b2a; stroke: #b57b2a"/>
     <use xlink:href="#mf0fe432da7" x="92.027849" y="183.7888" style="fill: #b57b2a; stroke: #b57b2a"/>
     <use xlink:href="#mf0fe432da7" x="102.813202" y="173.645333" style="fill: #b57b2a; stroke: #b57b2a"/>
     <use xlink:href="#mf0fe432da7" x="113.598555" y="163.501867" style="fill: #b57b2a; stroke: #b57b2a"/>
     <use xlink:href="#mf0fe432da7" x="124.383909" y="162.434133" style="fill: #b57b2a; stroke: #b57b2a"/>
     <use xlink:href="#mf0fe432da7" x="135.169262" y="153.892267" style="fill: #b57b2a; stroke: #b57b2a"/>
     <use xlink:href="#mf0fe432da7" x="145.954615" y="152.824533" style="fill: #b57b2a; stroke: #b57b2a"/>
     <use xlink:href="#mf0fe432da7" x="156.739968" y="134.673067" style="fill: #b57b2a; stroke: #b57b2a"/>
     <use xlink:href="#mf0fe432da7" x="167.525321" y="133.605333" style="fill: #b57b2a; stroke: #b57b2a"/>
     <use xlink:href="#mf0fe432da7" x="178.310674" y="144.816533" style="fill: #b57b2a; stroke: #b57b2a"/>
     <use xlink:href="#mf0fe432da7" x="189.096027" y="157.095467" style="fill: #b57b2a; stroke: #b57b2a"/>
     <use xlink:href="#mf0fe432da7" x="199.881381" y="138.410133" style="fill: #b57b2a; stroke: #b57b2a"/>
     <use xlink:href="#mf0fe432da7" x="210.666734" y="127.198933" style="fill: #b57b2a; stroke: #b57b2a"/>
     <use xlink:href="#mf0fe432da7" x="221.452087" y="137.876267" style="fill: #b57b2a; stroke: #b57b2a"/>
     <use xlink:href="#mf0fe432da7" x="232.23744" y="127.7328" style="fill: #b57b2a; stroke: #b57b2a"/>
     <use xlink:href="#mf0fe432da7" x="243.022793" y="132.5376" style="fill: #b57b2a; stroke: #b57b2a"/>
     <use xlink:href="#mf0fe432da7" x="253.808146" y="128.266667" style="fill: #b57b2a; stroke: #b57b2a"/>
     <use xlink:href="#mf0fe432da7" x="264.593499" y="118.657067" style="fill: #b57b2a; stroke: #b57b2a"/>
     <use xlink:href="#mf0fe432da7" x="275.378853" y="123.995733" style="fill: #b57b2a; stroke: #b57b2a"/>
     <use xlink:href="#mf0fe432da7" x="286.164206" y="123.461867" style="fill: #b57b2a; stroke: #b57b2a"/>
     <use xlink:href="#mf0fe432da7" x="296.949559" y="120.258667" style="fill: #b57b2a; stroke: #b57b2a"/>
     <use xlink:href="#mf0fe432da7" x="307.734912" y="113.852267" style="fill: #b57b2a; stroke: #b57b2a"/>
     <use xlink:href="#mf0fe432da7" x="318.520265" y="117.589333" style="fill: #b57b2a; stroke: #b57b2a"/>
     <use xlink:href="#mf0fe432da7" x="329.305618" y="121.3264" style="fill: #b57b2a; stroke: #b57b2a"/>
    </g>
   </g>
   <g id="line2d_20">
    <path d="M 70.457143 212.6176
L 81.242496 209.4144
L 92.027849 195
L 102.813202 177.916267
L 113.598555 173.645333
L 124.383909 164.035733
L 135.169262 158.1632
L 145.954615 177.3824
L 156.739968 152.824533
L 167.525321 153.892267
L 178.310674 146.952
L 189.096027 145.884267
L 199.881381 152.290667
L 210.666734 143.7488
L 221.452087 136.808533
L 232.23744 133.071467
L 243.022793 140.011733
L 253.808146 127.198933
L 264.593499 133.071467
L 275.378853 133.605333
L 286.164206 127.7328
L 296.949559 130.936
L 307.734912 125.597333
L 318.520265 135.7408
L 329.305618 124.5296
" clip-path="url(#p87f5db2382)" style="fill: none; stroke: #8966a5; stroke-width: 1.8; stroke-linecap: square"/>
    <defs>
     <path id="mad3693e738" d="M 0 1.6
C 0.424325 1.6 0.831328 1.431414 1.131371 1.131371
C 1.431414 0.831328 1.6 0.424325 1.6 0
C 1.6 -0.424325 1.431414 -0.831328 1.131371 -1.131371
C 0.831328 -1.431414 0.424325 -1.6 0 -1.6
C -0.424325 -1.6 -0.831328 -1.431414 -1.131371 -1.131371
C -1.431414 -0.831328 -1.6 -0.424325 -1.6 0
C -1.6 0.424325 -1.431414 0.831328 -1.131371 1.131371
C -0.831328 1.431414 -0.424325 1.6 0 1.6
z
" style="stroke: #8966a5"/>
    </defs>
    <g clip-path="url(#p87f5db2382)">
     <use xlink:href="#mad3693e738" x="70.457143" y="212.6176" style="fill: #8966a5; stroke: #8966a5"/>
     <use xlink:href="#mad3693e738" x="81.242496" y="209.4144" style="fill: #8966a5; stroke: #8966a5"/>
     <use xlink:href="#mad3693e738" x="92.027849" y="195" style="fill: #8966a5; stroke: #8966a5"/>
     <use xlink:href="#mad3693e738" x="102.813202" y="177.916267" style="fill: #8966a5; stroke: #8966a5"/>
     <use xlink:href="#mad3693e738" x="113.598555" y="173.645333" style="fill: #8966a5; stroke: #8966a5"/>
     <use xlink:href="#mad3693e738" x="124.383909" y="164.035733" style="fill: #8966a5; stroke: #8966a5"/>
     <use xlink:href="#mad3693e738" x="135.169262" y="158.1632" style="fill: #8966a5; stroke: #8966a5"/>
     <use xlink:href="#mad3693e738" x="145.954615" y="177.3824" style="fill: #8966a5; stroke: #8966a5"/>
     <use xlink:href="#mad3693e738" x="156.739968" y="152.824533" style="fill: #8966a5; stroke: #8966a5"/>
     <use xlink:href="#mad3693e738" x="167.525321" y="153.892267" style="fill: #8966a5; stroke: #8966a5"/>
     <use xlink:href="#mad3693e738" x="178.310674" y="146.952" style="fill: #8966a5; stroke: #8966a5"/>
     <use xlink:href="#mad3693e738" x="189.096027" y="145.884267" style="fill: #8966a5; stroke: #8966a5"/>
     <use xlink:href="#mad3693e738" x="199.881381" y="152.290667" style="fill: #8966a5; stroke: #8966a5"/>
     <use xlink:href="#mad3693e738" x="210.666734" y="143.7488" style="fill: #8966a5; stroke: #8966a5"/>
     <use xlink:href="#mad3693e738" x="221.452087" y="136.808533" style="fill: #8966a5; stroke: #8966a5"/>
     <use xlink:href="#mad3693e738" x="232.23744" y="133.071467" style="fill: #8966a5; stroke: #8966a5"/>
     <use xlink:href="#mad3693e738" x="243.022793" y="140.011733" style="fill: #8966a5; stroke: #8966a5"/>
     <use xlink:href="#mad3693e738" x="253.808146" y="127.198933" style="fill: #8966a5; stroke: #8966a5"/>
     <use xlink:href="#mad3693e738" x="264.593499" y="133.071467" style="fill: #8966a5; stroke: #8966a5"/>
     <use xlink:href="#mad3693e738" x="275.378853" y="133.605333" style="fill: #8966a5; stroke: #8966a5"/>
     <use xlink:href="#mad3693e738" x="286.164206" y="127.7328" style="fill: #8966a5; stroke: #8966a5"/>
     <use xlink:href="#mad3693e738" x="296.949559" y="130.936" style="fill: #8966a5; stroke: #8966a5"/>
     <use xlink:href="#mad3693e738" x="307.734912" y="125.597333" style="fill: #8966a5; stroke: #8966a5"/>
     <use xlink:href="#mad3693e738" x="318.520265" y="135.7408" style="fill: #8966a5; stroke: #8966a5"/>
     <use xlink:href="#mad3693e738" x="329.305618" y="124.5296" style="fill: #8966a5; stroke: #8966a5"/>
    </g>
   </g>
   <g id="line2d_21"/>
   <g id="patch_3">
    <path d="M 68.4 288.426667
L 68.4 74.88
" style="fill: none; stroke: #c5cfd3; stroke-width: 0.8; stroke-linejoin: miter; stroke-linecap: square"/>
   </g>
   <g id="patch_4">
    <path d="M 68.4 288.426667
L 342 288.426667
" style="fill: none; stroke: #c5cfd3; stroke-width: 0.8; stroke-linejoin: miter; stroke-linecap: square"/>
   </g>
   <g id="text_13">
    <!-- 80% target -->
    <g style="fill: #657780" transform="translate(75.24 114.386133) scale(0.11 -0.11)">
     <defs>
      <path id="DejaVuSans-72" d="M 2631 2963
Q 2534 3019 2420 3045
Q 2306 3072 2169 3072
Q 1681 3072 1420 2755
Q 1159 2438 1159 1844
L 1159 0
L 581 0
L 581 3500
L 1159 3500
L 1159 2956
Q 1341 3275 1631 3429
Q 1922 3584 2338 3584
Q 2397 3584 2469 3576
Q 2541 3569 2628 3553
L 2631 2963
z
" transform="scale(0.015625)"/>
      <path id="DejaVuSans-67" d="M 2906 1791
Q 2906 2416 2648 2759
Q 2391 3103 1925 3103
Q 1463 3103 1205 2759
Q 947 2416 947 1791
Q 947 1169 1205 825
Q 1463 481 1925 481
Q 2391 481 2648 825
Q 2906 1169 2906 1791
z
M 3481 434
Q 3481 -459 3084 -895
Q 2688 -1331 1869 -1331
Q 1566 -1331 1297 -1286
Q 1028 -1241 775 -1147
L 775 -588
Q 1028 -725 1275 -790
Q 1522 -856 1778 -856
Q 2344 -856 2625 -561
Q 2906 -266 2906 331
L 2906 616
Q 2728 306 2450 153
Q 2172 0 1784 0
Q 1141 0 747 490
Q 353 981 353 1791
Q 353 2603 747 3093
Q 1141 3584 1784 3584
Q 2172 3584 2450 3431
Q 2728 3278 2906 2969
L 2906 3500
L 3481 3500
L 3481 434
z
" transform="scale(0.015625)"/>
     </defs>
     <use xlink:href="#DejaVuSans-38"/>
     <use xlink:href="#DejaVuSans-30" x="63.623047"/>
     <use xlink:href="#DejaVuSans-25" x="127.246094"/>
     <use xlink:href="#DejaVuSans-20" x="222.265625"/>
     <use xlink:href="#DejaVuSans-74" x="254.052734"/>
     <use xlink:href="#DejaVuSans-61" x="293.261719"/>
     <use xlink:href="#DejaVuSans-72" x="354.541016"/>
     <use xlink:href="#DejaVuSans-67" x="393.904297"/>
     <use xlink:href="#DejaVuSans-65" x="457.380859"/>
     <use xlink:href="#DejaVuSans-74" x="518.904297"/>
    </g>
   </g>
   <g id="text_14">
    <!-- Starts from Tier-5 weights -->
    <g style="fill: #657780" transform="translate(68.4 331.631206) scale(0.11 -0.11)">
     <defs>
      <path id="DejaVuSans-53" d="M 3425 4513
L 3425 3897
Q 3066 4069 2747 4153
Q 2428 4238 2131 4238
Q 1616 4238 1336 4038
Q 1056 3838 1056 3469
Q 1056 3159 1242 3001
Q 1428 2844 1947 2747
L 2328 2669
Q 3034 2534 3370 2195
Q 3706 1856 3706 1288
Q 3706 609 3251 259
Q 2797 -91 1919 -91
Q 1588 -91 1214 -16
Q 841 59 441 206
L 441 856
Q 825 641 1194 531
Q 1563 422 1919 422
Q 2459 422 2753 634
Q 3047 847 3047 1241
Q 3047 1584 2836 1778
Q 2625 1972 2144 2069
L 1759 2144
Q 1053 2284 737 2584
Q 422 2884 422 3419
Q 422 4038 858 4394
Q 1294 4750 2059 4750
Q 2388 4750 2728 4690
Q 3069 4631 3425 4513
z
" transform="scale(0.015625)"/>
      <path id="DejaVuSans-66" d="M 2375 4863
L 2375 4384
L 1825 4384
Q 1516 4384 1395 4259
Q 1275 4134 1275 3809
L 1275 3500
L 2222 3500
L 2222 3053
L 1275 3053
L 1275 0
L 697 0
L 697 3053
L 147 3053
L 147 3500
L 697 3500
L 697 3744
Q 697 4328 969 4595
Q 1241 4863 1831 4863
L 2375 4863
z
" transform="scale(0.015625)"/>
      <path id="DejaVuSans-54" d="M -19 4666
L 3928 4666
L 3928 4134
L 2272 4134
L 2272 0
L 1638 0
L 1638 4134
L -19 4134
L -19 4666
z
" transform="scale(0.015625)"/>
      <path id="DejaVuSans-35" d="M 691 4666
L 3169 4666
L 3169 4134
L 1269 4134
L 1269 2991
Q 1406 3038 1543 3061
Q 1681 3084 1819 3084
Q 2600 3084 3056 2656
Q 3513 2228 3513 1497
Q 3513 744 3044 326
Q 2575 -91 1722 -91
Q 1428 -91 1123 -41
Q 819 9 494 109
L 494 744
Q 775 591 1075 516
Q 1375 441 1709 441
Q 2250 441 2565 725
Q 2881 1009 2881 1497
Q 2881 1984 2565 2268
Q 2250 2553 1709 2553
Q 1456 2553 1204 2497
Q 953 2441 691 2322
L 691 4666
z
" transform="scale(0.015625)"/>
      <path id="DejaVuSans-68" d="M 3513 2113
L 3513 0
L 2938 0
L 2938 2094
Q 2938 2591 2744 2837
Q 2550 3084 2163 3084
Q 1697 3084 1428 2787
Q 1159 2491 1159 1978
L 1159 0
L 581 0
L 581 4863
L 1159 4863
L 1159 2956
Q 1366 3272 1645 3428
Q 1925 3584 2291 3584
Q 2894 3584 3203 3211
Q 3513 2838 3513 2113
z
" transform="scale(0.015625)"/>
     </defs>
     <use xlink:href="#DejaVuSans-53"/>
     <use xlink:href="#DejaVuSans-74" x="63.476562"/>
     <use xlink:href="#DejaVuSans-61" x="102.685547"/>
     <use xlink:href="#DejaVuSans-72" x="163.964844"/>
     <use xlink:href="#DejaVuSans-74" x="205.078125"/>
     <use xlink:href="#DejaVuSans-73" x="244.287109"/>
     <use xlink:href="#DejaVuSans-20" x="296.386719"/>
     <use xlink:href="#DejaVuSans-66" x="328.173828"/>
     <use xlink:href="#DejaVuSans-72" x="363.378906"/>
     <use xlink:href="#DejaVuSans-6f" x="402.242188"/>
     <use xlink:href="#DejaVuSans-6d" x="463.423828"/>
     <use xlink:href="#DejaVuSans-20" x="560.835938"/>
     <use xlink:href="#DejaVuSans-54" x="592.623047"/>
     <use xlink:href="#DejaVuSans-69" x="650.582031"/>
     <use xlink:href="#DejaVuSans-65" x="678.365234"/>
     <use xlink:href="#DejaVuSans-72" x="739.888672"/>
     <use xlink:href="#DejaVuSans-2d" x="774.626953"/>
     <use xlink:href="#DejaVuSans-35" x="810.710938"/>
     <use xlink:href="#DejaVuSans-20" x="874.333984"/>
     <use xlink:href="#DejaVuSans-77" x="906.121094"/>
     <use xlink:href="#DejaVuSans-65" x="987.908203"/>
     <use xlink:href="#DejaVuSans-69" x="1049.431641"/>
     <use xlink:href="#DejaVuSans-67" x="1077.214844"/>
     <use xlink:href="#DejaVuSans-68" x="1140.691406"/>
     <use xlink:href="#DejaVuSans-74" x="1204.070312"/>
     <use xlink:href="#DejaVuSans-73" x="1243.279297"/>
    </g>
    <!-- Raw validation; no smoothing -->
    <g style="fill: #657780" transform="translate(68.4 343.9488) scale(0.11 -0.11)">
     <defs>
      <path id="DejaVuSans-52" d="M 2841 2188
Q 3044 2119 3236 1894
Q 3428 1669 3622 1275
L 4263 0
L 3584 0
L 2988 1197
Q 2756 1666 2539 1819
Q 2322 1972 1947 1972
L 1259 1972
L 1259 0
L 628 0
L 628 4666
L 2053 4666
Q 2853 4666 3247 4331
Q 3641 3997 3641 3322
Q 3641 2881 3436 2590
Q 3231 2300 2841 2188
z
M 1259 4147
L 1259 2491
L 2053 2491
Q 2509 2491 2742 2702
Q 2975 2913 2975 3322
Q 2975 3731 2742 3939
Q 2509 4147 2053 4147
L 1259 4147
z
" transform="scale(0.015625)"/>
      <path id="DejaVuSans-76" d="M 191 3500
L 800 3500
L 1894 563
L 2988 3500
L 3597 3500
L 2284 0
L 1503 0
L 191 3500
z
" transform="scale(0.015625)"/>
      <path id="DejaVuSans-3b" d="M 750 3309
L 1409 3309
L 1409 2516
L 750 2516
L 750 3309
z
M 750 794
L 1409 794
L 1409 256
L 897 -744
L 494 -744
L 750 256
L 750 794
z
" transform="scale(0.015625)"/>
     </defs>
     <use xlink:href="#DejaVuSans-52"/>
     <use xlink:href="#DejaVuSans-61" x="67.232422"/>
     <use xlink:href="#DejaVuSans-77" x="128.511719"/>
     <use xlink:href="#DejaVuSans-20" x="210.298828"/>
     <use xlink:href="#DejaVuSans-76" x="242.085938"/>
     <use xlink:href="#DejaVuSans-61" x="301.265625"/>
     <use xlink:href="#DejaVuSans-6c" x="362.544922"/>
     <use xlink:href="#DejaVuSans-69" x="390.328125"/>
     <use xlink:href="#DejaVuSans-64" x="418.111328"/>
     <use xlink:href="#DejaVuSans-61" x="481.587891"/>
     <use xlink:href="#DejaVuSans-74" x="542.867188"/>
     <use xlink:href="#DejaVuSans-69" x="582.076172"/>
     <use xlink:href="#DejaVuSans-6f" x="609.859375"/>
     <use xlink:href="#DejaVuSans-6e" x="671.041016"/>
     <use xlink:href="#DejaVuSans-3b" x="734.419922"/>
     <use xlink:href="#DejaVuSans-20" x="768.111328"/>
     <use xlink:href="#DejaVuSans-6e" x="799.898438"/>
     <use xlink:href="#DejaVuSans-6f" x="863.277344"/>
     <use xlink:href="#DejaVuSans-20" x="924.458984"/>
     <use xlink:href="#DejaVuSans-73" x="956.246094"/>
     <use xlink:href="#DejaVuSans-6d" x="1008.345703"/>
     <use xlink:href="#DejaVuSans-6f" x="1105.757812"/>
     <use xlink:href="#DejaVuSans-6f" x="1166.939453"/>
     <use xlink:href="#DejaVuSans-74" x="1228.121094"/>
     <use xlink:href="#DejaVuSans-68" x="1267.330078"/>
     <use xlink:href="#DejaVuSans-69" x="1330.708984"/>
     <use xlink:href="#DejaVuSans-6e" x="1358.492188"/>
     <use xlink:href="#DejaVuSans-67" x="1421.871094"/>
    </g>
   </g>
   <g id="text_15">
    <!-- 1. Learning progress -->
    <g style="fill: #263c46" transform="translate(68.4 36.88) scale(0.15 -0.15)">
     <defs>
      <path id="DejaVuSans-Bold-31" d="M 750 831
L 1813 831
L 1813 3847
L 722 3622
L 722 4441
L 1806 4666
L 2950 4666
L 2950 831
L 4013 831
L 4013 0
L 750 0
L 750 831
z
" transform="scale(0.015625)"/>
      <path id="DejaVuSans-Bold-2e" d="M 653 1209
L 1778 1209
L 1778 0
L 653 0
L 653 1209
z
" transform="scale(0.015625)"/>
      <path id="DejaVuSans-Bold-20" transform="scale(0.015625)"/>
      <path id="DejaVuSans-Bold-4c" d="M 588 4666
L 1791 4666
L 1791 909
L 3903 909
L 3903 0
L 588 0
L 588 4666
z
" transform="scale(0.015625)"/>
      <path id="DejaVuSans-Bold-65" d="M 4031 1759
L 4031 1441
L 1416 1441
Q 1456 1047 1700 850
Q 1944 653 2381 653
Q 2734 653 3104 758
Q 3475 863 3866 1075
L 3866 213
Q 3469 63 3072 -14
Q 2675 -91 2278 -91
Q 1328 -91 801 392
Q 275 875 275 1747
Q 275 2603 792 3093
Q 1309 3584 2216 3584
Q 3041 3584 3536 3087
Q 4031 2591 4031 1759
z
M 2881 2131
Q 2881 2450 2695 2645
Q 2509 2841 2209 2841
Q 1884 2841 1681 2658
Q 1478 2475 1428 2131
L 2881 2131
z
" transform="scale(0.015625)"/>
      <path id="DejaVuSans-Bold-61" d="M 2106 1575
Q 1756 1575 1579 1456
Q 1403 1338 1403 1106
Q 1403 894 1545 773
Q 1688 653 1941 653
Q 2256 653 2472 879
Q 2688 1106 2688 1447
L 2688 1575
L 2106 1575
z
M 3816 1997
L 3816 0
L 2688 0
L 2688 519
Q 2463 200 2181 54
Q 1900 -91 1497 -91
Q 953 -91 614 226
Q 275 544 275 1050
Q 275 1666 698 1953
Q 1122 2241 2028 2241
L 2688 2241
L 2688 2328
Q 2688 2594 2478 2717
Q 2269 2841 1825 2841
Q 1466 2841 1156 2769
Q 847 2697 581 2553
L 581 3406
Q 941 3494 1303 3539
Q 1666 3584 2028 3584
Q 2975 3584 3395 3211
Q 3816 2838 3816 1997
z
" transform="scale(0.015625)"/>
      <path id="DejaVuSans-Bold-72" d="M 3138 2547
Q 2991 2616 2845 2648
Q 2700 2681 2553 2681
Q 2122 2681 1889 2404
Q 1656 2128 1656 1613
L 1656 0
L 538 0
L 538 3500
L 1656 3500
L 1656 2925
Q 1872 3269 2151 3426
Q 2431 3584 2822 3584
Q 2878 3584 2943 3579
Q 3009 3575 3134 3559
L 3138 2547
z
" transform="scale(0.015625)"/>
      <path id="DejaVuSans-Bold-6e" d="M 4056 2131
L 4056 0
L 2931 0
L 2931 347
L 2931 1631
Q 2931 2084 2911 2256
Q 2891 2428 2841 2509
Q 2775 2619 2662 2680
Q 2550 2741 2406 2741
Q 2056 2741 1856 2470
Q 1656 2200 1656 1722
L 1656 0
L 538 0
L 538 3500
L 1656 3500
L 1656 2988
Q 1909 3294 2193 3439
Q 2478 3584 2822 3584
Q 3428 3584 3742 3212
Q 4056 2841 4056 2131
z
" transform="scale(0.015625)"/>
      <path id="DejaVuSans-Bold-69" d="M 538 3500
L 1656 3500
L 1656 0
L 538 0
L 538 3500
z
M 538 4863
L 1656 4863
L 1656 3950
L 538 3950
L 538 4863
z
" transform="scale(0.015625)"/>
      <path id="DejaVuSans-Bold-67" d="M 2919 594
Q 2688 288 2409 144
Q 2131 0 1766 0
Q 1125 0 706 504
Q 288 1009 288 1791
Q 288 2575 706 3076
Q 1125 3578 1766 3578
Q 2131 3578 2409 3434
Q 2688 3291 2919 2981
L 2919 3500
L 4044 3500
L 4044 353
Q 4044 -491 3511 -936
Q 2978 -1381 1966 -1381
Q 1638 -1381 1331 -1331
Q 1025 -1281 716 -1178
L 716 -306
Q 1009 -475 1290 -558
Q 1572 -641 1856 -641
Q 2406 -641 2662 -400
Q 2919 -159 2919 353
L 2919 594
z
M 2181 2772
Q 1834 2772 1640 2515
Q 1447 2259 1447 1791
Q 1447 1309 1634 1061
Q 1822 813 2181 813
Q 2531 813 2725 1069
Q 2919 1325 2919 1791
Q 2919 2259 2725 2515
Q 2531 2772 2181 2772
z
" transform="scale(0.015625)"/>
      <path id="DejaVuSans-Bold-70" d="M 1656 506
L 1656 -1331
L 538 -1331
L 538 3500
L 1656 3500
L 1656 2988
Q 1888 3294 2169 3439
Q 2450 3584 2816 3584
Q 3463 3584 3878 3070
Q 4294 2556 4294 1747
Q 4294 938 3878 423
Q 3463 -91 2816 -91
Q 2450 -91 2169 54
Q 1888 200 1656 506
z
M 2400 2772
Q 2041 2772 1848 2508
Q 1656 2244 1656 1747
Q 1656 1250 1848 986
Q 2041 722 2400 722
Q 2759 722 2948 984
Q 3138 1247 3138 1747
Q 3138 2247 2948 2509
Q 2759 2772 2400 2772
z
" transform="scale(0.015625)"/>
      <path id="DejaVuSans-Bold-6f" d="M 2203 2784
Q 1831 2784 1636 2517
Q 1441 2250 1441 1747
Q 1441 1244 1636 976
Q 1831 709 2203 709
Q 2569 709 2762 976
Q 2956 1244 2956 1747
Q 2956 2250 2762 2517
Q 2569 2784 2203 2784
z
M 2203 3584
Q 3106 3584 3614 3096
Q 4122 2609 4122 1747
Q 4122 884 3614 396
Q 3106 -91 2203 -91
Q 1297 -91 786 396
Q 275 884 275 1747
Q 275 2609 786 3096
Q 1297 3584 2203 3584
z
" transform="scale(0.015625)"/>
      <path id="DejaVuSans-Bold-73" d="M 3272 3391
L 3272 2541
Q 2913 2691 2578 2766
Q 2244 2841 1947 2841
Q 1628 2841 1473 2761
Q 1319 2681 1319 2516
Q 1319 2381 1436 2309
Q 1553 2238 1856 2203
L 2053 2175
Q 2913 2066 3209 1816
Q 3506 1566 3506 1031
Q 3506 472 3093 190
Q 2681 -91 1863 -91
Q 1516 -91 1145 -36
Q 775 19 384 128
L 384 978
Q 719 816 1070 734
Q 1422 653 1784 653
Q 2113 653 2278 743
Q 2444 834 2444 1013
Q 2444 1163 2330 1236
Q 2216 1309 1875 1350
L 1678 1375
Q 931 1469 631 1722
Q 331 1975 331 2491
Q 331 3047 712 3315
Q 1094 3584 1881 3584
Q 2191 3584 2531 3537
Q 2872 3491 3272 3391
z
" transform="scale(0.015625)"/>
     </defs>
     <use xlink:href="#DejaVuSans-Bold-31"/>
     <use xlink:href="#DejaVuSans-Bold-2e" x="69.580078"/>
     <use xlink:href="#DejaVuSans-Bold-20" x="107.568359"/>
     <use xlink:href="#DejaVuSans-Bold-4c" x="142.382812"/>
     <use xlink:href="#DejaVuSans-Bold-65" x="206.103516"/>
     <use xlink:href="#DejaVuSans-Bold-61" x="273.925781"/>
     <use xlink:href="#DejaVuSans-Bold-72" x="341.40625"/>
     <use xlink:href="#DejaVuSans-Bold-6e" x="390.722656"/>
     <use xlink:href="#DejaVuSans-Bold-69" x="461.914062"/>
     <use xlink:href="#DejaVuSans-Bold-6e" x="496.191406"/>
     <use xlink:href="#DejaVuSans-Bold-67" x="567.382812"/>
     <use xlink:href="#DejaVuSans-Bold-20" x="638.964844"/>
     <use xlink:href="#DejaVuSans-Bold-70" x="673.779297"/>
     <use xlink:href="#DejaVuSans-Bold-72" x="745.361328"/>
     <use xlink:href="#DejaVuSans-Bold-6f" x="794.677734"/>
     <use xlink:href="#DejaVuSans-Bold-67" x="863.378906"/>
     <use xlink:href="#DejaVuSans-Bold-72" x="934.960938"/>
     <use xlink:href="#DejaVuSans-Bold-65" x="984.277344"/>
     <use xlink:href="#DejaVuSans-Bold-73" x="1052.099609"/>
     <use xlink:href="#DejaVuSans-Bold-73" x="1111.621094"/>
    </g>
   </g>
   <g id="PathCollection_1">
    <defs>
     <path id="m99d3e2a496" d="M 0 -6.708204
L -1.506086 -2.072949
L -6.379881 -2.072949
L -2.436898 0.791796
L -3.942983 5.427051
L -0 2.562306
L 3.942983 5.427051
L 2.436898 0.791796
L 6.379881 -2.072949
L 1.506086 -2.072949
z
" style="stroke: #ffffff; stroke-width: 0.8"/>
    </defs>
    <g clip-path="url(#p87f5db2382)">
     <use xlink:href="#m99d3e2a496" x="286.164206" y="109.581333" style="fill: #347c8d; stroke: #ffffff; stroke-width: 0.8"/>
    </g>
   </g>
   <g id="PathCollection_2">
    <defs>
     <path id="mdea6e8ca75" d="M 0 -6.708204
L -1.506086 -2.072949
L -6.379881 -2.072949
L -2.436898 0.791796
L -3.942983 5.427051
L -0 2.562306
L 3.942983 5.427051
L 2.436898 0.791796
L 6.379881 -2.072949
L 1.506086 -2.072949
z
" style="stroke: #ffffff; stroke-width: 0.8"/>
    </defs>
    <g clip-path="url(#p87f5db2382)">
     <use xlink:href="#mdea6e8ca75" x="307.734912" y="113.852267" style="fill: #b57b2a; stroke: #ffffff; stroke-width: 0.8"/>
    </g>
   </g>
   <g id="PathCollection_3">
    <defs>
     <path id="mfab37efc30" d="M 0 -6.708204
L -1.506086 -2.072949
L -6.379881 -2.072949
L -2.436898 0.791796
L -3.942983 5.427051
L -0 2.562306
L 3.942983 5.427051
L 2.436898 0.791796
L 6.379881 -2.072949
L 1.506086 -2.072949
z
" style="stroke: #ffffff; stroke-width: 0.8"/>
    </defs>
    <g clip-path="url(#p87f5db2382)">
     <use xlink:href="#mfab37efc30" x="329.305618" y="124.5296" style="fill: #8966a5; stroke: #ffffff; stroke-width: 0.8"/>
    </g>
   </g>
   <g id="legend_1">
    <g id="line2d_22">
     <path d="M 73.728 54.181175
L 80.328 54.181175
L 86.928 54.181175
" style="fill: none; stroke: #347c8d; stroke-width: 1.8; stroke-linecap: square"/>
     <g>
      <use xlink:href="#m0e6433318f" x="80.328" y="54.181175" style="fill: #347c8d; stroke: #347c8d"/>
     </g>
    </g>
    <g id="text_16">
     <!-- A -->
     <g style="fill: #263c46" transform="translate(91.728 58.381175) scale(0.12 -0.12)">
      <defs>
       <path id="DejaVuSans-41" d="M 2188 4044
L 1331 1722
L 3047 1722
L 2188 4044
z
M 1831 4666
L 2547 4666
L 4325 0
L 3669 0
L 3244 1197
L 1141 1197
L 716 0
L 50 0
L 1831 4666
z
" transform="scale(0.015625)"/>
      </defs>
      <use xlink:href="#DejaVuSans-41"/>
     </g>
    </g>
    <g id="line2d_23">
     <path d="M 109.53675 54.181175
L 116.13675 54.181175
L 122.73675 54.181175
" style="fill: none; stroke: #b57b2a; stroke-width: 1.8; stroke-linecap: square"/>
     <g>
      <use xlink:href="#mf0fe432da7" x="116.13675" y="54.181175" style="fill: #b57b2a; stroke: #b57b2a"/>
     </g>
    </g>
    <g id="text_17">
     <!-- B -->
     <g style="fill: #263c46" transform="translate(127.53675 58.381175) scale(0.12 -0.12)">
      <defs>
       <path id="DejaVuSans-42" d="M 1259 2228
L 1259 519
L 2272 519
Q 2781 519 3026 730
Q 3272 941 3272 1375
Q 3272 1813 3026 2020
Q 2781 2228 2272 2228
L 1259 2228
z
M 1259 4147
L 1259 2741
L 2194 2741
Q 2656 2741 2882 2914
Q 3109 3088 3109 3444
Q 3109 3797 2882 3972
Q 2656 4147 2194 4147
L 1259 4147
z
M 628 4666
L 2241 4666
Q 2963 4666 3353 4366
Q 3744 4066 3744 3513
Q 3744 3084 3544 2831
Q 3344 2578 2956 2516
Q 3422 2416 3680 2098
Q 3938 1781 3938 1306
Q 3938 681 3513 340
Q 3088 0 2303 0
L 628 0
L 628 4666
z
" transform="scale(0.015625)"/>
      </defs>
      <use xlink:href="#DejaVuSans-42"/>
     </g>
    </g>
    <g id="line2d_24">
     <path d="M 145.369875 54.181175
L 151.969875 54.181175
L 158.569875 54.181175
" style="fill: none; stroke: #8966a5; stroke-width: 1.8; stroke-linecap: square"/>
     <g>
      <use xlink:href="#mad3693e738" x="151.969875" y="54.181175" style="fill: #8966a5; stroke: #8966a5"/>
     </g>
    </g>
    <g id="text_18">
     <!-- C -->
     <g style="fill: #263c46" transform="translate(163.369875 58.381175) scale(0.12 -0.12)">
      <defs>
       <path id="DejaVuSans-43" d="M 4122 4306
L 4122 3641
Q 3803 3938 3442 4084
Q 3081 4231 2675 4231
Q 1875 4231 1450 3742
Q 1025 3253 1025 2328
Q 1025 1406 1450 917
Q 1875 428 2675 428
Q 3081 428 3442 575
Q 3803 722 4122 1019
L 4122 359
Q 3791 134 3420 21
Q 3050 -91 2638 -91
Q 1578 -91 968 557
Q 359 1206 359 2328
Q 359 3453 968 4101
Q 1578 4750 2638 4750
Q 3056 4750 3426 4639
Q 3797 4528 4122 4306
z
" transform="scale(0.015625)"/>
      </defs>
      <use xlink:href="#DejaVuSans-43"/>
     </g>
    </g>
    <g id="line2d_25">
     <defs>
      <path id="mfe1163550a" d="M 0 -5.5
L -1.234827 -1.699593
L -5.230811 -1.699593
L -1.997992 0.649187
L -3.232819 4.449593
L -0 2.100813
L 3.232819 4.449593
L 1.997992 0.649187
L 5.230811 -1.699593
L 1.234827 -1.699593
z
" style="stroke: #52636c; stroke-linejoin: bevel"/>
     </defs>
     <g>
      <use xlink:href="#mfe1163550a" x="187.94925" y="54.181175" style="fill: #52636c; stroke: #52636c; stroke-linejoin: bevel"/>
     </g>
    </g>
    <g id="text_19">
     <!-- Selected -->
     <g style="fill: #263c46" transform="translate(199.34925 58.381175) scale(0.12 -0.12)">
      <use xlink:href="#DejaVuSans-53"/>
      <use xlink:href="#DejaVuSans-65" x="63.476562"/>
      <use xlink:href="#DejaVuSans-6c" x="125"/>
      <use xlink:href="#DejaVuSans-65" x="152.783203"/>
      <use xlink:href="#DejaVuSans-63" x="214.306641"/>
      <use xlink:href="#DejaVuSans-74" x="269.287109"/>
      <use xlink:href="#DejaVuSans-65" x="308.496094"/>
      <use xlink:href="#DejaVuSans-64" x="370.019531"/>
     </g>
    </g>
   </g>
  </g>
  <g id="axes_2">
   <g id="patch_5">
    <path d="M 68.4 651.456
L 342 651.456
L 342 437.909333
L 68.4 437.909333
z
" style="fill: #ffffff"/>
   </g>
   <g id="line2d_26">
    <path d="M 276.857143 651.456
L 276.857143 437.909333
" clip-path="url(#pac680e79b8)" style="fill: none; stroke-dasharray: 3.6,3.6; stroke-dashoffset: 0; stroke: #9aa8ae; stroke-width: 1.2"/>
   </g>
   <g id="matplotlib.axis_3">
    <g id="xtick_5">
     <g id="line2d_27">
      <path d="M 68.4 651.456
L 68.4 437.909333
" clip-path="url(#pac680e79b8)" style="fill: none; stroke: #b0b0b0; stroke-opacity: 0.2; stroke-width: 0.8; stroke-linecap: square"/>
     </g>
     <g id="line2d_28"/>
     <g id="text_20">
      <!-- 0% -->
      <g style="fill: #52636c" transform="translate(58.881563 668.574125) scale(0.12 -0.12)">
       <use xlink:href="#DejaVuSans-30"/>
       <use xlink:href="#DejaVuSans-25" x="63.623047"/>
      </g>
     </g>
    </g>
    <g id="xtick_6">
     <g id="line2d_29">
      <path d="M 133.542857 651.456
L 133.542857 437.909333
" clip-path="url(#pac680e79b8)" style="fill: none; stroke: #b0b0b0; stroke-opacity: 0.2; stroke-width: 0.8; stroke-linecap: square"/>
     </g>
     <g id="line2d_30"/>
     <g id="text_21">
      <!-- 25% -->
      <g style="fill: #52636c" transform="translate(120.20692 668.574125) scale(0.12 -0.12)">
       <use xlink:href="#DejaVuSans-32"/>
       <use xlink:href="#DejaVuSans-35" x="63.623047"/>
       <use xlink:href="#DejaVuSans-25" x="127.246094"/>
      </g>
     </g>
    </g>
    <g id="xtick_7">
     <g id="line2d_31">
      <path d="M 198.685714 651.456
L 198.685714 437.909333
" clip-path="url(#pac680e79b8)" style="fill: none; stroke: #b0b0b0; stroke-opacity: 0.2; stroke-width: 0.8; stroke-linecap: square"/>
     </g>
     <g id="line2d_32"/>
     <g id="text_22">
      <!-- 50% -->
      <g style="fill: #52636c" transform="translate(185.349777 668.574125) scale(0.12 -0.12)">
       <use xlink:href="#DejaVuSans-35"/>
       <use xlink:href="#DejaVuSans-30" x="63.623047"/>
       <use xlink:href="#DejaVuSans-25" x="127.246094"/>
      </g>
     </g>
    </g>
    <g id="xtick_8">
     <g id="line2d_33">
      <path d="M 263.828571 651.456
L 263.828571 437.909333
" clip-path="url(#pac680e79b8)" style="fill: none; stroke: #b0b0b0; stroke-opacity: 0.2; stroke-width: 0.8; stroke-linecap: square"/>
     </g>
     <g id="line2d_34"/>
     <g id="text_23">
      <!-- 75% -->
      <g style="fill: #52636c" transform="translate(250.492634 668.574125) scale(0.12 -0.12)">
       <defs>
        <path id="DejaVuSans-37" d="M 525 4666
L 3525 4666
L 3525 4397
L 1831 0
L 1172 0
L 2766 4134
L 525 4134
L 525 4666
z
" transform="scale(0.015625)"/>
       </defs>
       <use xlink:href="#DejaVuSans-37"/>
       <use xlink:href="#DejaVuSans-35" x="63.623047"/>
       <use xlink:href="#DejaVuSans-25" x="127.246094"/>
      </g>
     </g>
    </g>
    <g id="xtick_9">
     <g id="line2d_35">
      <path d="M 328.971429 651.456
L 328.971429 437.909333
" clip-path="url(#pac680e79b8)" style="fill: none; stroke: #b0b0b0; stroke-opacity: 0.2; stroke-width: 0.8; stroke-linecap: square"/>
     </g>
     <g id="line2d_36"/>
     <g id="text_24">
      <!-- 100% -->
      <g style="fill: #52636c" transform="translate(311.817991 668.574125) scale(0.12 -0.12)">
       <use xlink:href="#DejaVuSans-31"/>
       <use xlink:href="#DejaVuSans-30" x="63.623047"/>
       <use xlink:href="#DejaVuSans-30" x="127.246094"/>
       <use xlink:href="#DejaVuSans-25" x="190.869141"/>
      </g>
     </g>
    </g>
    <g id="text_25">
     <!-- Ten-win episode success -->
     <g style="fill: #263c46" transform="translate(125.652188 684.947719) scale(0.13 -0.13)">
      <use xlink:href="#DejaVuSans-54"/>
      <use xlink:href="#DejaVuSans-65" x="44.083984"/>
      <use xlink:href="#DejaVuSans-6e" x="105.607422"/>
      <use xlink:href="#DejaVuSans-2d" x="168.986328"/>
      <use xlink:href="#DejaVuSans-77" x="205.070312"/>
      <use xlink:href="#DejaVuSans-69" x="286.857422"/>
      <use xlink:href="#DejaVuSans-6e" x="314.640625"/>
      <use xlink:href="#DejaVuSans-20" x="378.019531"/>
      <use xlink:href="#DejaVuSans-65" x="409.806641"/>
      <use xlink:href="#DejaVuSans-70" x="471.330078"/>
      <use xlink:href="#DejaVuSans-69" x="534.806641"/>
      <use xlink:href="#DejaVuSans-73" x="562.589844"/>
      <use xlink:href="#DejaVuSans-6f" x="614.689453"/>
      <use xlink:href="#DejaVuSans-64" x="675.871094"/>
      <use xlink:href="#DejaVuSans-65" x="739.347656"/>
      <use xlink:href="#DejaVuSans-20" x="800.871094"/>
      <use xlink:href="#DejaVuSans-73" x="832.658203"/>
      <use xlink:href="#DejaVuSans-75" x="884.757812"/>
      <use xlink:href="#DejaVuSans-63" x="948.136719"/>
      <use xlink:href="#DejaVuSans-63" x="1003.117188"/>
      <use xlink:href="#DejaVuSans-65" x="1058.097656"/>
      <use xlink:href="#DejaVuSans-73" x="1119.621094"/>
      <use xlink:href="#DejaVuSans-73" x="1171.720703"/>
     </g>
    </g>
   </g>
   <g id="matplotlib.axis_4">
    <g id="ytick_7">
     <g id="line2d_37"/>
     <g id="text_26">
      <!-- Model A -->
      <g style="fill: #52636c" transform="translate(12.345625 480.355708) scale(0.12 -0.12)">
       <defs>
        <path id="DejaVuSans-4d" d="M 628 4666
L 1569 4666
L 2759 1491
L 3956 4666
L 4897 4666
L 4897 0
L 4281 0
L 4281 4097
L 3078 897
L 2444 897
L 1241 4097
L 1241 0
L 628 0
L 628 4666
z
" transform="scale(0.015625)"/>
       </defs>
       <use xlink:href="#DejaVuSans-4d"/>
       <use xlink:href="#DejaVuSans-6f" x="86.279297"/>
       <use xlink:href="#DejaVuSans-64" x="147.460938"/>
       <use xlink:href="#DejaVuSans-65" x="210.9375"/>
       <use xlink:href="#DejaVuSans-6c" x="272.460938"/>
       <use xlink:href="#DejaVuSans-20" x="300.244141"/>
       <use xlink:href="#DejaVuSans-41" x="332.03125"/>
      </g>
     </g>
    </g>
    <g id="ytick_8">
     <g id="line2d_38"/>
     <g id="text_27">
      <!-- Model B -->
      <g style="fill: #52636c" transform="translate(12.32125 549.241729) scale(0.12 -0.12)">
       <use xlink:href="#DejaVuSans-4d"/>
       <use xlink:href="#DejaVuSans-6f" x="86.279297"/>
       <use xlink:href="#DejaVuSans-64" x="147.460938"/>
       <use xlink:href="#DejaVuSans-65" x="210.9375"/>
       <use xlink:href="#DejaVuSans-6c" x="272.460938"/>
       <use xlink:href="#DejaVuSans-20" x="300.244141"/>
       <use xlink:href="#DejaVuSans-42" x="332.03125"/>
      </g>
     </g>
    </g>
    <g id="ytick_9">
     <g id="line2d_39"/>
     <g id="text_28">
      <!-- Model C -->
      <g style="fill: #52636c" transform="translate(12.175 618.127751) scale(0.12 -0.12)">
       <use xlink:href="#DejaVuSans-4d"/>
       <use xlink:href="#DejaVuSans-6f" x="86.279297"/>
       <use xlink:href="#DejaVuSans-64" x="147.460938"/>
       <use xlink:href="#DejaVuSans-65" x="210.9375"/>
       <use xlink:href="#DejaVuSans-6c" x="272.460938"/>
       <use xlink:href="#DejaVuSans-20" x="300.244141"/>
       <use xlink:href="#DejaVuSans-43" x="332.03125"/>
      </g>
     </g>
    </g>
   </g>
   <g id="line2d_40">
    <path d="M 289.104 465.463742
L 278.420571 486.129548
" clip-path="url(#pac680e79b8)" style="fill: none; stroke: #347c8d; stroke-opacity: 0.45; stroke-width: 1.5; stroke-linecap: square"/>
   </g>
   <g id="line2d_41">
    <path d="M 279.462857 534.349763
L 287.540571 555.01557
" clip-path="url(#pac680e79b8)" style="fill: none; stroke: #b57b2a; stroke-opacity: 0.45; stroke-width: 1.5; stroke-linecap: square"/>
   </g>
   <g id="line2d_42">
    <path d="M 279.723429 603.235785
L 279.202286 623.901591
" clip-path="url(#pac680e79b8)" style="fill: none; stroke: #8966a5; stroke-opacity: 0.45; stroke-width: 1.5; stroke-linecap: square"/>
   </g>
   <g id="patch_6">
    <path d="M 68.4 651.456
L 68.4 437.909333
" style="fill: none; stroke: #c5cfd3; stroke-width: 0.8; stroke-linejoin: miter; stroke-linecap: square"/>
   </g>
   <g id="patch_7">
    <path d="M 68.4 651.456
L 342 651.456
" style="fill: none; stroke: #c5cfd3; stroke-width: 0.8; stroke-linejoin: miter; stroke-linecap: square"/>
   </g>
   <g id="PathCollection_4">
    <defs>
     <path id="mb4911a3b1e" d="M 0 3.605551
C 0.956203 3.605551 1.873372 3.225648 2.54951 2.54951
C 3.225648 1.873372 3.605551 0.956203 3.605551 0
C 3.605551 -0.956203 3.225648 -1.873372 2.54951 -2.54951
C 1.873372 -3.225648 0.956203 -3.605551 0 -3.605551
C -0.956203 -3.605551 -1.873372 -3.225648 -2.54951 -2.54951
C -3.225648 -1.873372 -3.605551 -0.956203 -3.605551 0
C -3.605551 0.956203 -3.225648 1.873372 -2.54951 2.54951
C -1.873372 3.225648 -0.956203 3.605551 0 3.605551
z
" style="stroke: #347c8d"/>
    </defs>
    <g clip-path="url(#pac680e79b8)">
     <use xlink:href="#mb4911a3b1e" x="289.104" y="465.463742" style="fill: #347c8d; stroke: #347c8d"/>
    </g>
   </g>
   <g id="PathCollection_5">
    <defs>
     <path id="mb93fdf3cb2" d="M -0 4.898979
L 4.898979 0
L 0 -4.898979
L -4.898979 -0
z
" style="stroke: #347c8d; stroke-width: 1.6"/>
    </defs>
    <g clip-path="url(#pac680e79b8)">
     <use xlink:href="#mb93fdf3cb2" x="278.420571" y="486.129548" style="fill: #ffffff; stroke: #347c8d; stroke-width: 1.6"/>
    </g>
   </g>
   <g id="text_29">
    <!-- 84.7% -->
    <g style="fill: #263c46" transform="translate(297.104 468.774992) scale(0.12 -0.12)">
     <defs>
      <path id="DejaVuSans-2e" d="M 684 794
L 1344 794
L 1344 0
L 684 0
L 684 794
z
" transform="scale(0.015625)"/>
     </defs>
     <use xlink:href="#DejaVuSans-38"/>
     <use xlink:href="#DejaVuSans-34" x="63.623047"/>
     <use xlink:href="#DejaVuSans-2e" x="127.246094"/>
     <use xlink:href="#DejaVuSans-37" x="159.033203"/>
     <use xlink:href="#DejaVuSans-25" x="222.65625"/>
    </g>
   </g>
   <g id="text_30">
    <!-- 80.6% -->
    <g style="fill: #263c46" transform="translate(286.420571 489.440798) scale(0.12 -0.12)">
     <use xlink:href="#DejaVuSans-38"/>
     <use xlink:href="#DejaVuSans-30" x="63.623047"/>
     <use xlink:href="#DejaVuSans-2e" x="127.246094"/>
     <use xlink:href="#DejaVuSans-36" x="159.033203"/>
     <use xlink:href="#DejaVuSans-25" x="222.65625"/>
    </g>
   </g>
   <g id="PathCollection_6">
    <defs>
     <path id="me38e7e9430" d="M 0 3.605551
C 0.956203 3.605551 1.873372 3.225648 2.54951 2.54951
C 3.225648 1.873372 3.605551 0.956203 3.605551 0
C 3.605551 -0.956203 3.225648 -1.873372 2.54951 -2.54951
C 1.873372 -3.225648 0.956203 -3.605551 0 -3.605551
C -0.956203 -3.605551 -1.873372 -3.225648 -2.54951 -2.54951
C -3.225648 -1.873372 -3.605551 -0.956203 -3.605551 0
C -3.605551 0.956203 -3.225648 1.873372 -2.54951 2.54951
C -1.873372 3.225648 -0.956203 3.605551 0 3.605551
z
" style="stroke: #b57b2a"/>
    </defs>
    <g clip-path="url(#pac680e79b8)">
     <use xlink:href="#me38e7e9430" x="279.462857" y="534.349763" style="fill: #b57b2a; stroke: #b57b2a"/>
    </g>
   </g>
   <g id="PathCollection_7">
    <defs>
     <path id="me43faee84d" d="M -0 4.898979
L 4.898979 0
L 0 -4.898979
L -4.898979 -0
z
" style="stroke: #b57b2a; stroke-width: 1.6"/>
    </defs>
    <g clip-path="url(#pac680e79b8)">
     <use xlink:href="#me43faee84d" x="287.540571" y="555.01557" style="fill: #ffffff; stroke: #b57b2a; stroke-width: 1.6"/>
    </g>
   </g>
   <g id="text_31">
    <!-- 81.0% -->
    <g style="fill: #263c46" transform="translate(287.462857 537.661013) scale(0.12 -0.12)">
     <use xlink:href="#DejaVuSans-38"/>
     <use xlink:href="#DejaVuSans-31" x="63.623047"/>
     <use xlink:href="#DejaVuSans-2e" x="127.246094"/>
     <use xlink:href="#DejaVuSans-30" x="159.033203"/>
     <use xlink:href="#DejaVuSans-25" x="222.65625"/>
    </g>
   </g>
   <g id="text_32">
    <!-- 84.1% -->
    <g style="fill: #263c46" transform="translate(295.540571 558.32682) scale(0.12 -0.12)">
     <use xlink:href="#DejaVuSans-38"/>
     <use xlink:href="#DejaVuSans-34" x="63.623047"/>
     <use xlink:href="#DejaVuSans-2e" x="127.246094"/>
     <use xlink:href="#DejaVuSans-31" x="159.033203"/>
     <use xlink:href="#DejaVuSans-25" x="222.65625"/>
    </g>
   </g>
   <g id="PathCollection_8">
    <defs>
     <path id="m0518c41420" d="M 0 3.605551
C 0.956203 3.605551 1.873372 3.225648 2.54951 2.54951
C 3.225648 1.873372 3.605551 0.956203 3.605551 0
C 3.605551 -0.956203 3.225648 -1.873372 2.54951 -2.54951
C 1.873372 -3.225648 0.956203 -3.605551 0 -3.605551
C -0.956203 -3.605551 -1.873372 -3.225648 -2.54951 -2.54951
C -3.225648 -1.873372 -3.605551 -0.956203 -3.605551 0
C -3.605551 0.956203 -3.225648 1.873372 -2.54951 2.54951
C -1.873372 3.225648 -0.956203 3.605551 0 3.605551
z
" style="stroke: #8966a5"/>
    </defs>
    <g clip-path="url(#pac680e79b8)">
     <use xlink:href="#m0518c41420" x="279.723429" y="603.235785" style="fill: #8966a5; stroke: #8966a5"/>
    </g>
   </g>
   <g id="PathCollection_9">
    <defs>
     <path id="m174bcb0ec8" d="M -0 4.898979
L 4.898979 0
L 0 -4.898979
L -4.898979 -0
z
" style="stroke: #8966a5; stroke-width: 1.6"/>
    </defs>
    <g clip-path="url(#pac680e79b8)">
     <use xlink:href="#m174bcb0ec8" x="279.202286" y="623.901591" style="fill: #ffffff; stroke: #8966a5; stroke-width: 1.6"/>
    </g>
   </g>
   <g id="text_33">
    <!-- 81.1% -->
    <g style="fill: #263c46" transform="translate(287.723429 606.547035) scale(0.12 -0.12)">
     <use xlink:href="#DejaVuSans-38"/>
     <use xlink:href="#DejaVuSans-31" x="63.623047"/>
     <use xlink:href="#DejaVuSans-2e" x="127.246094"/>
     <use xlink:href="#DejaVuSans-31" x="159.033203"/>
     <use xlink:href="#DejaVuSans-25" x="222.65625"/>
    </g>
   </g>
   <g id="text_34">
    <!-- 80.9% -->
    <g style="fill: #263c46" transform="translate(287.202286 627.212841) scale(0.12 -0.12)">
     <defs>
      <path id="DejaVuSans-39" d="M 703 97
L 703 672
Q 941 559 1184 500
Q 1428 441 1663 441
Q 2288 441 2617 861
Q 2947 1281 2994 2138
Q 2813 1869 2534 1725
Q 2256 1581 1919 1581
Q 1219 1581 811 2004
Q 403 2428 403 3163
Q 403 3881 828 4315
Q 1253 4750 1959 4750
Q 2769 4750 3195 4129
Q 3622 3509 3622 2328
Q 3622 1225 3098 567
Q 2575 -91 1691 -91
Q 1453 -91 1209 -44
Q 966 3 703 97
z
M 1959 2075
Q 2384 2075 2632 2365
Q 2881 2656 2881 3163
Q 2881 3666 2632 3958
Q 2384 4250 1959 4250
Q 1534 4250 1286 3958
Q 1038 3666 1038 3163
Q 1038 2656 1286 2365
Q 1534 2075 1959 2075
z
" transform="scale(0.015625)"/>
     </defs>
     <use xlink:href="#DejaVuSans-38"/>
     <use xlink:href="#DejaVuSans-30" x="63.623047"/>
     <use xlink:href="#DejaVuSans-2e" x="127.246094"/>
     <use xlink:href="#DejaVuSans-39" x="159.033203"/>
     <use xlink:href="#DejaVuSans-25" x="222.65625"/>
    </g>
   </g>
   <g id="text_35">
    <!-- 80% target -->
    <g style="fill: #657780" transform="translate(76.608 643.981867) scale(0.11 -0.11)">
     <use xlink:href="#DejaVuSans-38"/>
     <use xlink:href="#DejaVuSans-30" x="63.623047"/>
     <use xlink:href="#DejaVuSans-25" x="127.246094"/>
     <use xlink:href="#DejaVuSans-20" x="222.265625"/>
     <use xlink:href="#DejaVuSans-74" x="254.052734"/>
     <use xlink:href="#DejaVuSans-61" x="293.261719"/>
     <use xlink:href="#DejaVuSans-72" x="354.541016"/>
     <use xlink:href="#DejaVuSans-67" x="393.904297"/>
     <use xlink:href="#DejaVuSans-65" x="457.380859"/>
     <use xlink:href="#DejaVuSans-74" x="518.904297"/>
    </g>
   </g>
   <g id="text_36">
    <!-- Mean: 82.27% test -->
    <g style="fill: #657780" transform="translate(68.4 694.66054) scale(0.11 -0.11)">
     <defs>
      <path id="DejaVuSans-3a" d="M 750 794
L 1409 794
L 1409 0
L 750 0
L 750 794
z
M 750 3309
L 1409 3309
L 1409 2516
L 750 2516
L 750 3309
z
" transform="scale(0.015625)"/>
     </defs>
     <use xlink:href="#DejaVuSans-4d"/>
     <use xlink:href="#DejaVuSans-65" x="86.279297"/>
     <use xlink:href="#DejaVuSans-61" x="147.802734"/>
     <use xlink:href="#DejaVuSans-6e" x="209.082031"/>
     <use xlink:href="#DejaVuSans-3a" x="272.460938"/>
     <use xlink:href="#DejaVuSans-20" x="306.152344"/>
     <use xlink:href="#DejaVuSans-38" x="337.939453"/>
     <use xlink:href="#DejaVuSans-32" x="401.5625"/>
     <use xlink:href="#DejaVuSans-2e" x="465.185547"/>
     <use xlink:href="#DejaVuSans-32" x="496.972656"/>
     <use xlink:href="#DejaVuSans-37" x="560.595703"/>
     <use xlink:href="#DejaVuSans-25" x="624.21875"/>
     <use xlink:href="#DejaVuSans-20" x="719.238281"/>
     <use xlink:href="#DejaVuSans-74" x="751.025391"/>
     <use xlink:href="#DejaVuSans-65" x="790.234375"/>
     <use xlink:href="#DejaVuSans-73" x="851.757812"/>
     <use xlink:href="#DejaVuSans-74" x="903.857422"/>
    </g>
    <!-- 81.87% fresh seeds -->
    <g style="fill: #657780" transform="translate(68.4 706.978133) scale(0.11 -0.11)">
     <use xlink:href="#DejaVuSans-38"/>
     <use xlink:href="#DejaVuSans-31" x="63.623047"/>
     <use xlink:href="#DejaVuSans-2e" x="127.246094"/>
     <use xlink:href="#DejaVuSans-38" x="159.033203"/>
     <use xlink:href="#DejaVuSans-37" x="222.65625"/>
     <use xlink:href="#DejaVuSans-25" x="286.279297"/>
     <use xlink:href="#DejaVuSans-20" x="381.298828"/>
     <use xlink:href="#DejaVuSans-66" x="413.085938"/>
     <use xlink:href="#DejaVuSans-72" x="448.291016"/>
     <use xlink:href="#DejaVuSans-65" x="487.154297"/>
     <use xlink:href="#DejaVuSans-73" x="548.677734"/>
     <use xlink:href="#DejaVuSans-68" x="600.777344"/>
     <use xlink:href="#DejaVuSans-20" x="664.15625"/>
     <use xlink:href="#DejaVuSans-73" x="695.943359"/>
     <use xlink:href="#DejaVuSans-65" x="748.042969"/>
     <use xlink:href="#DejaVuSans-65" x="809.566406"/>
     <use xlink:href="#DejaVuSans-64" x="871.089844"/>
     <use xlink:href="#DejaVuSans-73" x="934.566406"/>
    </g>
   </g>
   <g id="text_37">
    <!-- 2. Held-out performance -->
    <g style="fill: #263c46" transform="translate(68.4 399.909333) scale(0.15 -0.15)">
     <defs>
      <path id="DejaVuSans-Bold-32" d="M 1844 884
L 3897 884
L 3897 0
L 506 0
L 506 884
L 2209 2388
Q 2438 2594 2547 2791
Q 2656 2988 2656 3200
Q 2656 3528 2436 3728
Q 2216 3928 1850 3928
Q 1569 3928 1234 3808
Q 900 3688 519 3450
L 519 4475
Q 925 4609 1322 4679
Q 1719 4750 2100 4750
Q 2938 4750 3402 4381
Q 3866 4013 3866 3353
Q 3866 2972 3669 2642
Q 3472 2313 2841 1759
L 1844 884
z
" transform="scale(0.015625)"/>
      <path id="DejaVuSans-Bold-48" d="M 588 4666
L 1791 4666
L 1791 2888
L 3566 2888
L 3566 4666
L 4769 4666
L 4769 0
L 3566 0
L 3566 1978
L 1791 1978
L 1791 0
L 588 0
L 588 4666
z
" transform="scale(0.015625)"/>
      <path id="DejaVuSans-Bold-6c" d="M 538 4863
L 1656 4863
L 1656 0
L 538 0
L 538 4863
z
" transform="scale(0.015625)"/>
      <path id="DejaVuSans-Bold-64" d="M 2919 2988
L 2919 4863
L 4044 4863
L 4044 0
L 2919 0
L 2919 506
Q 2688 197 2409 53
Q 2131 -91 1766 -91
Q 1119 -91 703 423
Q 288 938 288 1747
Q 288 2556 703 3070
Q 1119 3584 1766 3584
Q 2128 3584 2408 3439
Q 2688 3294 2919 2988
z
M 2181 722
Q 2541 722 2730 984
Q 2919 1247 2919 1747
Q 2919 2247 2730 2509
Q 2541 2772 2181 2772
Q 1825 2772 1636 2509
Q 1447 2247 1447 1747
Q 1447 1247 1636 984
Q 1825 722 2181 722
z
" transform="scale(0.015625)"/>
      <path id="DejaVuSans-Bold-2d" d="M 347 2297
L 2309 2297
L 2309 1388
L 347 1388
L 347 2297
z
" transform="scale(0.015625)"/>
      <path id="DejaVuSans-Bold-75" d="M 500 1363
L 500 3500
L 1625 3500
L 1625 3150
Q 1625 2866 1622 2436
Q 1619 2006 1619 1863
Q 1619 1441 1641 1255
Q 1663 1069 1716 984
Q 1784 875 1895 815
Q 2006 756 2150 756
Q 2500 756 2700 1025
Q 2900 1294 2900 1772
L 2900 3500
L 4019 3500
L 4019 0
L 2900 0
L 2900 506
Q 2647 200 2364 54
Q 2081 -91 1741 -91
Q 1134 -91 817 281
Q 500 653 500 1363
z
" transform="scale(0.015625)"/>
      <path id="DejaVuSans-Bold-74" d="M 1759 4494
L 1759 3500
L 2913 3500
L 2913 2700
L 1759 2700
L 1759 1216
Q 1759 972 1856 886
Q 1953 800 2241 800
L 2816 800
L 2816 0
L 1856 0
Q 1194 0 917 276
Q 641 553 641 1216
L 641 2700
L 84 2700
L 84 3500
L 641 3500
L 641 4494
L 1759 4494
z
" transform="scale(0.015625)"/>
      <path id="DejaVuSans-Bold-66" d="M 2841 4863
L 2841 4128
L 2222 4128
Q 1984 4128 1890 4042
Q 1797 3956 1797 3744
L 1797 3500
L 2753 3500
L 2753 2700
L 1797 2700
L 1797 0
L 678 0
L 678 2700
L 122 2700
L 122 3500
L 678 3500
L 678 3744
Q 678 4316 997 4589
Q 1316 4863 1984 4863
L 2841 4863
z
" transform="scale(0.015625)"/>
      <path id="DejaVuSans-Bold-6d" d="M 3781 2919
Q 3994 3244 4286 3414
Q 4578 3584 4928 3584
Q 5531 3584 5847 3212
Q 6163 2841 6163 2131
L 6163 0
L 5038 0
L 5038 1825
Q 5041 1866 5042 1909
Q 5044 1953 5044 2034
Q 5044 2406 4934 2573
Q 4825 2741 4581 2741
Q 4263 2741 4089 2478
Q 3916 2216 3909 1719
L 3909 0
L 2784 0
L 2784 1825
Q 2784 2406 2684 2573
Q 2584 2741 2328 2741
Q 2006 2741 1831 2477
Q 1656 2213 1656 1722
L 1656 0
L 531 0
L 531 3500
L 1656 3500
L 1656 2988
Q 1863 3284 2130 3434
Q 2397 3584 2719 3584
Q 3081 3584 3359 3409
Q 3638 3234 3781 2919
z
" transform="scale(0.015625)"/>
      <path id="DejaVuSans-Bold-63" d="M 3366 3391
L 3366 2478
Q 3138 2634 2908 2709
Q 2678 2784 2431 2784
Q 1963 2784 1702 2511
Q 1441 2238 1441 1747
Q 1441 1256 1702 982
Q 1963 709 2431 709
Q 2694 709 2930 787
Q 3166 866 3366 1019
L 3366 103
Q 3103 6 2833 -42
Q 2563 -91 2291 -91
Q 1344 -91 809 395
Q 275 881 275 1747
Q 275 2613 809 3098
Q 1344 3584 2291 3584
Q 2566 3584 2833 3536
Q 3100 3488 3366 3391
z
" transform="scale(0.015625)"/>
     </defs>
     <use xlink:href="#DejaVuSans-Bold-32"/>
     <use xlink:href="#DejaVuSans-Bold-2e" x="69.580078"/>
     <use xlink:href="#DejaVuSans-Bold-20" x="107.568359"/>
     <use xlink:href="#DejaVuSans-Bold-48" x="142.382812"/>
     <use xlink:href="#DejaVuSans-Bold-65" x="226.074219"/>
     <use xlink:href="#DejaVuSans-Bold-6c" x="293.896484"/>
     <use xlink:href="#DejaVuSans-Bold-64" x="328.173828"/>
     <use xlink:href="#DejaVuSans-Bold-2d" x="399.755859"/>
     <use xlink:href="#DejaVuSans-Bold-6f" x="441.259766"/>
     <use xlink:href="#DejaVuSans-Bold-75" x="509.960938"/>
     <use xlink:href="#DejaVuSans-Bold-74" x="581.152344"/>
     <use xlink:href="#DejaVuSans-Bold-20" x="628.955078"/>
     <use xlink:href="#DejaVuSans-Bold-70" x="663.769531"/>
     <use xlink:href="#DejaVuSans-Bold-65" x="735.351562"/>
     <use xlink:href="#DejaVuSans-Bold-72" x="803.173828"/>
     <use xlink:href="#DejaVuSans-Bold-66" x="852.490234"/>
     <use xlink:href="#DejaVuSans-Bold-6f" x="895.996094"/>
     <use xlink:href="#DejaVuSans-Bold-72" x="964.697266"/>
     <use xlink:href="#DejaVuSans-Bold-6d" x="1014.013672"/>
     <use xlink:href="#DejaVuSans-Bold-61" x="1118.212891"/>
     <use xlink:href="#DejaVuSans-Bold-6e" x="1185.693359"/>
     <use xlink:href="#DejaVuSans-Bold-63" x="1256.884766"/>
     <use xlink:href="#DejaVuSans-Bold-65" x="1316.162109"/>
    </g>
   </g>
   <g id="legend_2">
    <g id="line2d_43">
     <defs>
      <path id="mf52a71ed23" d="M 0 3
C 0.795609 3 1.55874 2.683901 2.12132 2.12132
C 2.683901 1.55874 3 0.795609 3 0
C 3 -0.795609 2.683901 -1.55874 2.12132 -2.12132
C 1.55874 -2.683901 0.795609 -3 0 -3
C -0.795609 -3 -1.55874 -2.683901 -2.12132 -2.12132
C -2.683901 -1.55874 -3 -0.795609 -3 0
C -3 0.795609 -2.683901 1.55874 -2.12132 2.12132
C -1.55874 2.683901 -0.795609 3 0 3
z
" style="stroke: #52636c"/>
     </defs>
     <g>
      <use xlink:href="#mf52a71ed23" x="80.328" y="417.210508" style="fill: #52636c; stroke: #52636c"/>
     </g>
    </g>
    <g id="text_38">
     <!-- Test -->
     <g style="fill: #263c46" transform="translate(91.728 421.410508) scale(0.12 -0.12)">
      <use xlink:href="#DejaVuSans-54"/>
      <use xlink:href="#DejaVuSans-65" x="44.083984"/>
      <use xlink:href="#DejaVuSans-73" x="105.607422"/>
      <use xlink:href="#DejaVuSans-74" x="157.707031"/>
     </g>
    </g>
    <g id="line2d_44">
     <defs>
      <path id="m8768e3cd16" d="M -0 4.242641
L 4.242641 0
L 0 -4.242641
L -4.242641 -0
z
" style="stroke: #52636c; stroke-linejoin: miter"/>
     </defs>
     <g>
      <use xlink:href="#m8768e3cd16" x="133.95675" y="417.210508" style="fill: #ffffff; stroke: #52636c; stroke-linejoin: miter"/>
     </g>
    </g>
    <g id="text_39">
     <!-- Fresh seeds -->
     <g style="fill: #263c46" transform="translate(145.35675 421.410508) scale(0.12 -0.12)">
      <use xlink:href="#DejaVuSans-46"/>
      <use xlink:href="#DejaVuSans-72" x="50.269531"/>
      <use xlink:href="#DejaVuSans-65" x="89.132812"/>
      <use xlink:href="#DejaVuSans-73" x="150.65625"/>
      <use xlink:href="#DejaVuSans-68" x="202.755859"/>
      <use xlink:href="#DejaVuSans-20" x="266.134766"/>
      <use xlink:href="#DejaVuSans-73" x="297.921875"/>
      <use xlink:href="#DejaVuSans-65" x="350.021484"/>
      <use xlink:href="#DejaVuSans-65" x="411.544922"/>
      <use xlink:href="#DejaVuSans-64" x="473.068359"/>
      <use xlink:href="#DejaVuSans-73" x="536.544922"/>
     </g>
    </g>
   </g>
  </g>
 </g>
 <defs>
  <clipPath id="p87f5db2382">
   <rect x="68.4" y="74.88" width="273.6" height="213.546667"/>
  </clipPath>
  <clipPath id="pac680e79b8">
   <rect x="68.4" y="437.909333" width="273.6" height="213.546667"/>
  </clipPath>
 </defs>
</svg>
